<svg width="52" height="58" viewBox="0 0 52 58" fill="none" xmlns="http://www.w3.org/2000/svg">
<path d="M40.9284 40.8208L35.5932 39.0427L33.6779 35.212C35.4034 33.4558 36.6014 31.132 37.0054 28.7082L37.2443 27.2765H39.2871C41.1439 27.2765 42.6546 25.7658 42.6546 23.909V16.8373C42.6546 7.55323 35.1013 0 25.8172 0C16.5093 0 8.97991 7.53156 8.97991 16.8373V23.909C8.97991 25.3723 9.91842 26.62 11.2249 27.0834V28.399C11.2249 30.2558 12.7355 31.7664 14.5924 31.7664H15.5781C16.0647 32.8235 16.6946 33.8025 17.461 34.682C17.6199 34.8647 17.7857 35.0419 17.9556 35.2142L16.0413 39.0427L10.706 40.8209C4.50253 42.8894 0 49.4199 0 56.3489C0 56.9689 0.502538 57.4714 1.12249 57.4714H50.512C51.1318 57.4714 51.6345 56.9689 51.6345 56.3489C51.6345 49.4199 47.1321 42.8894 40.9284 40.8208ZM40.4096 23.909C40.4096 24.528 39.906 25.0315 39.2871 25.0315H37.574C37.8593 22.8213 38.0495 20.4694 38.1259 18.1529C38.1281 18.0876 38.1299 18.024 38.132 17.9598H40.4096V23.909ZM12.3474 25.0315C11.7284 25.0315 11.2249 24.528 11.2249 23.909V17.9598H13.5033C13.507 18.0769 13.5109 18.1945 13.5153 18.313C13.5154 18.317 13.5157 18.3209 13.5158 18.325C13.5158 18.3253 13.5158 18.3256 13.5158 18.326C13.5943 20.579 13.782 22.8699 14.0609 25.0314H12.3474V25.0315ZM14.5924 29.5215C13.9734 29.5215 13.4699 29.0179 13.4699 28.399V27.2765H14.3901L14.6289 28.7087C14.6745 28.9809 14.7305 29.2521 14.7953 29.5215H14.5924ZM13.4718 15.7148H11.2675C11.8361 8.19181 18.1144 2.24498 25.8172 2.24498C33.4859 2.24498 39.7918 8.19103 40.3668 15.7148H38.1628C38.082 9.51567 33.0338 4.48996 26.822 4.48996H24.8127C18.601 4.48996 13.5525 9.51567 13.4718 15.7148ZM24.8126 6.73493H26.8219C31.8516 6.73493 35.9226 10.849 35.9196 15.8731C35.9196 16.2264 35.9168 16.5339 35.9109 16.8138C35.9109 16.8174 35.9108 16.8211 35.9108 16.8248L34.5068 16.6242C30.6925 16.0795 27.0912 14.2788 24.366 11.5537C24.1554 11.3432 23.8699 11.2249 23.5723 11.2249C20.5577 11.2249 17.672 12.5984 15.7645 14.9188C16.2346 10.3481 20.0985 6.73493 24.8126 6.73493ZM17.1224 29.5215C16.5605 27.6522 15.9176 22.152 15.7755 18.6274L17.2862 16.6129C18.6737 14.7635 20.8324 13.6144 23.1287 13.4825C26.1501 16.3579 30.0588 18.2567 34.1893 18.8465L35.8419 19.0826C35.7314 21.427 35.5057 23.7795 35.1823 25.9431C35.1822 25.9437 35.1821 25.9445 35.1819 25.9453C35.0791 26.6409 34.9981 27.0886 34.7911 28.3389C34.1966 31.9045 31.5361 35.1288 28.0239 36.007C26.5785 36.3679 25.0557 36.3677 23.6111 36.007C21.4181 35.4588 19.4073 33.9414 18.1096 31.7664H20.3979C20.8612 33.0729 22.1089 34.0114 23.5723 34.0114H25.8172C27.6778 34.0114 29.1847 32.5046 29.1847 30.6439C29.1847 28.7871 27.6741 27.2765 25.8172 27.2765H23.5723C22.0763 27.2765 20.8471 28.2427 20.396 29.5215H17.1224ZM23.4779 38.2787C24.2478 38.4409 25.0327 38.5238 25.8172 38.5238C26.4314 38.5238 27.0456 38.4724 27.6528 38.3727L25.6694 40.4703L23.4779 38.2787ZM24.1262 42.1022L20.5659 45.8673C19.5857 43.9911 18.7435 42.0386 18.0528 40.0396L19.3898 37.3656L24.1262 42.1022ZM32.0545 36.9853L33.5815 40.0395C32.8896 42.0418 32.0472 43.995 31.068 45.8689L27.2574 42.0583L32.0545 36.9853ZM22.4498 30.6439C22.4498 30.0242 22.9524 29.5215 23.5723 29.5215H25.8172C26.4362 29.5215 26.9397 30.025 26.9397 30.6439C26.9397 31.2638 26.437 31.7664 25.8172 31.7664H23.5723C22.9533 31.7664 22.4498 31.2629 22.4498 30.6439ZM2.28988 55.2265C2.73472 49.6658 6.43545 44.6114 11.4159 42.9506L16.1409 41.3759C17.0066 43.7697 18.079 46.0962 19.3359 48.3062C19.338 48.31 19.34 48.3138 19.3422 48.3175L19.3423 48.3178C20.2606 49.9329 21.2942 51.5112 22.4148 53.0096L23.7956 55.2265H2.28988ZM25.8172 54.2259L24.2949 51.7819C24.2779 51.7545 24.2597 51.7279 24.2404 51.7021C23.3314 50.4895 22.4835 49.2215 21.7112 47.9235L25.7143 43.6902L29.9324 47.9083C29.155 49.2156 28.3041 50.489 27.3943 51.7018C27.3393 51.7751 27.4174 51.6596 25.8172 54.2259ZM27.8388 55.2265L29.2196 53.0098C30.3451 51.5056 31.3861 49.9146 32.3136 48.2805C32.3193 48.2706 32.3245 48.2605 32.3301 48.2506C32.3308 48.2494 32.3315 48.2483 32.3322 48.247C33.5731 46.0582 34.6343 43.7518 35.4935 41.3759L40.2184 42.9506C45.199 44.6114 48.8998 49.6658 49.3446 55.2265H27.8388Z" fill="white"/>
</svg>
