<svg width="20" height="20" viewBox="0 0 20 20" fill="none" xmlns="http://www.w3.org/2000/svg">
<path d="M19.1287 9.56436C19.1287 4.28154 14.8472 0 9.56436 0C4.28154 0 0 4.28154 0 9.56436C0 14.8472 4.28154 19.1287 9.56436 19.1287C9.6204 19.1287 9.67644 19.1287 9.73248 19.125V11.6827H7.67764V9.28789H9.73248V7.52446C9.73248 5.48082 10.9803 4.36747 12.8035 4.36747C13.6778 4.36747 14.4287 4.43099 14.6454 4.46088V6.59791H13.3901C12.4 6.59791 12.2058 7.06866 12.2058 7.75983V9.28415H14.5782L14.2681 11.679H12.2058V18.7588C16.2034 17.6119 19.1287 13.9318 19.1287 9.56436Z" fill="white"/>
</svg>
