<svg width="66" height="66" viewBox="0 0 66 66" fill="none" xmlns="http://www.w3.org/2000/svg">
<g clip-path="url(#clip0_3401_2863)">
<path d="M41.6214 50.9971C41.0875 50.9971 40.6546 51.4299 40.6546 51.9639V65.0479C40.6546 66.2979 42.5882 66.2979 42.5882 65.0479V51.9639C42.5882 51.4298 42.1553 50.9971 41.6214 50.9971Z" fill="white"/>
<path d="M62.3953 19.6592H60.1232V14.019C60.1232 12.0341 58.5084 10.4192 56.5134 10.4192C55.6675 10.4192 54.8894 10.7132 54.2743 11.2035C53.6318 10.2124 52.5145 9.55461 51.245 9.55461C49.9751 9.55461 48.8574 10.2129 48.2151 11.2045C47.5984 10.7136 46.8173 10.4192 45.9665 10.4192C44.9977 10.4192 44.1176 10.8046 43.4698 11.4294C42.8081 10.6298 41.8066 10.1192 40.6877 10.1192H38.4157V4.47906C38.4157 2.49416 36.8009 0.879223 34.806 0.879223C33.9601 0.879223 33.182 1.17326 32.5669 1.66349C31.9244 0.672457 30.807 0.0146484 29.5376 0.0146484C28.2677 0.0146484 27.15 0.672973 26.5076 1.66452C25.8909 1.17377 25.1099 0.879352 24.2591 0.879352C22.8825 0.879352 21.6845 1.6564 21.0791 2.79464C20.4887 2.37441 19.7667 2.12613 18.9857 2.12613C17.0008 2.12613 15.3859 3.74094 15.3859 5.72597V20.4426C13.8476 19.8915 12.0186 20.5095 11.1241 21.8737C10.507 21.3818 9.72507 21.0867 8.87326 21.0867C7.49667 21.0867 6.29862 21.8637 5.69327 23.002C5.10288 22.5818 4.38088 22.3335 3.59984 22.3335C1.61481 22.3331 0 23.948 0 25.9329V43.1088C0 45.4389 0.669281 47.7063 1.9354 49.666C1.93798 49.67 1.94068 49.6741 1.94326 49.678C3.032 51.3092 3.56129 52.84 3.56129 54.3583V65.0477C3.56129 66.2977 5.49489 66.2977 5.49489 65.0477V54.3583C5.49489 52.4478 4.86067 50.5678 3.55575 48.6109C2.49446 46.9659 1.93359 45.0635 1.93359 43.1088V34.6711C3.11283 35.2896 4.61111 35.1859 5.69405 34.4139C6.30029 35.5517 7.50015 36.3282 8.88332 36.3282C9.7564 36.3282 10.5576 36.0156 11.1816 35.4967C12.3247 37.1541 14.7326 37.5314 16.3349 36.3195C17.2593 37.0628 18.4339 37.5092 19.7117 37.5092H21.4173V37.6395C16.9371 38.1211 13.4373 41.9087 13.4373 46.4946C13.4373 47.0286 13.8702 47.4614 14.4041 47.4614C14.938 47.4614 15.3709 47.0286 15.3709 46.4946C15.3709 42.6496 18.517 39.5216 22.3841 39.5216C22.918 39.5216 23.3509 39.0887 23.3509 38.5548V36.5426C23.3509 36.0086 22.918 35.5758 22.3841 35.5758H19.7117C17.8468 35.5758 16.3226 34.0985 16.2626 32.2599H25.3021C26.2235 32.2599 26.9732 33.0037 26.9732 33.9179V38.0437C26.9732 41.0057 25.8139 43.7906 23.7086 45.8852L21.5698 48.0133C19.8871 49.6874 18.9606 51.9137 18.9606 54.2821V65.0479C18.9606 66.2979 20.8942 66.2979 20.8942 65.0479V54.2821C20.8942 52.4321 21.6185 50.6925 22.9336 49.3839L25.0724 47.2558C27.5451 44.7956 28.9068 41.524 28.9068 38.0437V33.9179C28.9068 31.9375 27.2897 30.3263 25.3021 30.3263H23.0301V24.6861C23.0301 22.7012 21.4153 21.0863 19.4204 21.0863C18.6367 21.0863 17.9113 21.3388 17.3196 21.7656V14.464C17.8182 14.7256 18.3847 14.8743 18.9858 14.8743H18.9958C19.772 14.8743 20.4912 14.6264 21.0798 14.207C21.6854 15.3446 22.8831 16.1211 24.2591 16.1211H24.2692C25.1426 16.1211 25.9443 15.8081 26.5684 15.2887C27.2191 16.2291 28.307 16.8471 29.5376 16.8471C30.3338 16.8471 31.0985 16.585 31.7209 16.1126C32.6451 16.8557 33.8197 17.3021 35.0974 17.3021H36.803V17.4325C32.3229 17.9141 28.8231 21.7016 28.8231 26.2875C28.8231 26.8215 29.2559 27.2543 29.7898 27.2543C30.3238 27.2543 30.7566 26.8215 30.7566 26.2875C30.7566 22.4425 33.9027 19.3145 37.7698 19.3145C38.3037 19.3145 38.7366 18.8816 38.7366 18.3477V16.3355C38.7366 15.8015 38.3037 15.3687 37.7698 15.3687H35.0973C33.2324 15.3687 31.7082 13.8914 31.6482 12.0528H40.6877C41.6091 12.0528 42.3588 12.7966 42.3588 13.7108V17.8366C42.3588 22.1468 39.8078 24.9681 36.9554 27.8062C35.2729 29.4803 34.3462 31.7066 34.3462 34.075V65.0479C34.3462 66.2979 36.2798 66.2979 36.2798 65.0479V34.075C36.2798 32.9208 36.5618 31.8096 37.0933 30.8192V32.4417C37.0933 34.7718 37.7626 37.0392 39.0287 38.9989C39.0313 39.0029 39.034 39.007 39.0366 39.0108C40.1253 40.642 40.6546 42.1729 40.6546 43.6912V46.9365C40.6546 48.1865 42.5882 48.1865 42.5882 46.9365V43.6912C42.5882 41.7808 41.9538 39.9006 40.6492 37.9438C39.5879 36.2988 39.027 34.3964 39.027 32.4417V28.4728C40.4643 27.0427 41.8813 25.6515 42.8322 23.8283C43.4508 24.9213 44.6236 25.6611 45.9665 25.6611H45.9765C46.8499 25.6611 47.6516 25.3481 48.2758 24.8287C48.9265 25.7692 50.0145 26.3872 51.245 26.3872C52.0413 26.3872 52.8059 26.1251 53.4283 25.6527C54.3525 26.3958 55.5271 26.8422 56.8049 26.8422H58.5104V26.9726C54.0303 27.4541 50.5305 31.2417 50.5305 35.8275C50.5305 37.0775 52.4641 37.0775 52.4641 35.8275C52.4641 31.9825 55.6102 28.8545 59.4772 28.8545C60.0111 28.8545 60.444 28.4216 60.444 27.8877V25.8754C60.444 25.3415 60.0111 24.9086 59.4772 24.9086H56.8049C54.94 24.9086 53.4158 23.4314 53.3557 21.5928H62.3953C63.3167 21.5928 64.0664 22.3366 64.0664 23.2506V27.3764C64.0664 30.3384 62.907 33.1233 60.8017 35.2179C58.3775 37.6299 56.0537 39.91 56.0537 43.615V65.0479C56.0537 66.2979 57.9873 66.2979 57.9873 65.0479V43.6149C57.9873 40.4607 60.1278 38.6161 62.1657 36.5886C64.6382 34.1284 66 30.8568 66 27.3764V23.2506C66 21.2703 64.3829 19.6592 62.3953 19.6592ZM3.60976 33.1479H3.59971C2.68099 33.1479 1.93346 32.4005 1.93346 31.4817V25.9329C1.93346 25.0142 2.68086 24.2667 3.60963 24.2667C4.5112 24.2667 5.24597 24.9869 5.2733 25.882V31.5326C5.24623 32.4277 4.51133 33.1479 3.60976 33.1479ZM14.018 35.0987C13.4729 35.0551 13.0021 34.7746 12.7265 34.329C12.4919 33.9497 12.4797 33.5124 12.4804 32.832C12.4815 32.7976 12.483 32.7632 12.483 32.7285V30.9509C12.483 29.7295 10.5059 29.6765 10.5059 30.952C10.5059 31.5545 10.5469 32.1728 10.5469 32.7806C10.519 33.675 9.78424 34.3946 8.87326 34.3946C7.95455 34.3946 7.20702 33.6472 7.20702 32.7283V24.686C7.20702 23.7673 7.95442 23.0198 8.88319 23.0198C9.70458 23.0198 10.3874 23.6178 10.5231 24.4009C10.5287 24.867 10.5057 25.3363 10.5057 25.7956C10.5057 27.0196 12.4829 27.0725 12.4829 25.798C12.4829 25.798 12.466 23.7611 12.5026 23.5407C12.7004 22.3536 14.1918 21.7718 15.1519 22.4851C15.7184 22.9057 15.8212 23.5007 15.8226 24.5897C15.7718 26.5095 15.8201 28.4373 15.8201 30.3578C14.9718 30.514 14.3268 31.2561 14.3268 32.1469C14.3268 33.1308 14.5954 34.0529 15.0618 34.8464C14.7602 35.0374 14.3986 35.1288 14.018 35.0987ZM19.4302 23.0199C20.3489 23.0199 21.0964 23.7673 21.0964 24.6861V30.3263H17.7566V24.6352C17.7838 23.7401 18.5188 23.0199 19.4302 23.0199ZM18.9955 12.9407H18.9856C18.0669 12.9407 17.3193 12.1933 17.3193 11.2745V5.72571C17.3193 4.807 18.0667 4.05947 18.9955 4.05947C19.8971 4.05947 20.6318 4.77967 20.6592 5.67479V11.3255C20.632 12.2207 19.8971 12.9407 18.9955 12.9407ZM24.2691 14.1875H24.259C23.3403 14.1875 22.5929 13.4401 22.5929 12.5213V4.47893C22.5929 3.56021 23.3403 2.81282 24.2691 2.81282C25.1706 2.81282 25.9054 3.53302 25.9327 4.42801V12.5723C25.9054 13.4674 25.1706 14.1875 24.2691 14.1875ZM27.8663 13.255C27.8773 10.039 27.8752 6.8227 27.8663 3.60675C27.8663 2.69216 28.616 1.94811 29.5375 1.94811C30.4589 1.94811 31.2086 2.69216 31.2086 3.60675C31.2101 3.89756 31.206 10.1508 31.206 10.1508C30.3577 10.307 29.7126 11.0492 29.7126 11.9399C29.7126 12.925 29.9819 13.8481 30.4493 14.6423C30.1804 14.8164 29.8654 14.9136 29.5375 14.9136C28.616 14.9136 27.8663 14.1696 27.8663 13.255ZM33.1423 10.1192V4.42943C33.1689 3.53379 33.9041 2.81282 34.8159 2.81282C35.7346 2.81282 36.4821 3.56022 36.4821 4.47906V10.1192H33.1423ZM45.9765 23.7275H45.9665C45.0478 23.7275 44.3003 22.9799 44.3003 22.0612V14.019C44.3003 13.1003 45.0477 12.3528 45.9765 12.3528C46.878 12.3528 47.6129 13.073 47.6401 13.9681V22.1123C47.6129 23.0073 46.878 23.7275 45.9765 23.7275ZM49.5737 22.795V22.1628C49.5746 22.1289 49.5763 22.0953 49.5763 22.0612L49.5737 13.1467C49.5737 12.2321 50.3235 11.4881 51.2449 11.4881C52.1663 11.4881 52.916 12.2321 52.916 13.1467L52.9134 19.6908C52.0651 19.847 51.4201 20.5891 51.4201 21.4799C51.4201 22.465 51.6893 23.3881 52.1568 24.1822C51.8879 24.3564 51.5728 24.4536 51.2449 24.4536C50.3235 24.4535 49.5737 23.7094 49.5737 22.795ZM54.8497 19.6592V13.9694C54.8763 13.0738 55.6116 12.3528 56.5233 12.3528C57.442 12.3528 58.1896 13.1003 58.1896 14.019V19.6592H54.8497Z" fill="white"/>
</g>
<defs>
<clipPath id="clip0_3401_2863">
<rect width="66" height="66" fill="white"/>
</clipPath>
</defs>
</svg>
