<svg width="66" height="66" viewBox="0 0 66 66" fill="none" xmlns="http://www.w3.org/2000/svg">
<g clip-path="url(#clip0_3401_21995)">
<path d="M0.39974 17.98C0.600576 18.4698 1.10215 18.7943 1.63157 18.7758C2.16524 18.7573 2.63523 18.4038 2.8099 17.9014C2.98392 17.4013 2.81454 16.8264 2.40733 16.4913C1.98026 16.1399 1.35661 16.104 0.891775 16.4038C0.375505 16.7365 0.163326 17.4125 0.39974 17.98Z" fill="white"/>
<path d="M53.5044 27.8594C53.6307 27.5338 53.7471 27.2089 53.8528 26.8863C54.5644 24.7155 54.855 22.5086 54.7417 20.1396C54.5538 16.2153 52.7376 12.4425 49.6279 9.51606C46.6423 6.70642 42.8487 5.09497 39.2199 5.09497C33.8136 5.09497 29.5884 8.11305 27.551 9.91219C27.3994 10.0461 27.1784 10.049 27.0258 9.9185C24.914 8.11704 20.5956 5.09497 15.4001 5.09497C11.1071 5.09497 6.53695 7.41128 3.47325 11.1399C3.0213 11.6899 3.10071 12.5023 3.65075 12.9542C4.20092 13.4063 5.01316 13.3268 5.4651 12.7767C8.05173 9.62885 11.8587 7.67322 15.4001 7.67322C19.7688 7.67322 23.5108 10.309 25.3525 11.8801C26.4732 12.836 28.1519 12.821 29.2574 11.8449C31.0217 10.2869 34.6623 7.67322 39.2198 7.67322C45.0465 7.67322 51.8212 13.0574 52.1665 20.263C52.2644 22.3124 52.0145 24.2164 51.4026 26.0834C51.2577 26.5256 51.0945 26.9616 50.9087 27.4022C50.3909 27.353 49.8664 27.3279 49.3361 27.3279C40.1476 27.3279 32.6723 34.8592 32.6723 44.1165C32.6723 44.5543 32.689 44.9882 32.7219 45.4177C31.4467 46.4576 30.4105 47.309 29.5445 48.0419C28.2367 49.149 26.3387 49.1487 25.0312 48.0412C23.8615 47.0501 22.3407 45.811 20.7307 44.499C14.9192 39.7633 6.96002 33.2777 5.04409 30.0226C3.78442 27.8825 3.03174 25.9441 2.67545 23.9223C2.63432 23.6886 2.59784 23.4511 2.56742 23.2161C2.47577 22.51 1.82918 22.0119 1.12316 22.1036C0.417142 22.1953 -0.080951 22.842 0.0107012 23.5479C0.0461503 23.8214 0.0885604 24.0979 0.136513 24.3698C0.547981 26.7044 1.40134 28.9162 2.82227 31.3302C4.97281 34.984 12.8071 41.3678 19.1021 46.4974C20.7024 47.8014 22.2139 49.0331 23.3647 50.0081C24.5014 50.9712 25.8946 51.4525 27.2884 51.4525C28.6809 51.4525 30.0739 50.9715 31.2102 50.0097C31.7891 49.5197 32.4486 48.9733 33.2088 48.3496C35.0757 55.5644 41.5985 60.9051 49.3361 60.9051C58.5245 60.9051 65.9997 53.3737 65.9997 44.1165C66 36.3087 60.6824 29.7285 53.5044 27.8594ZM49.3363 58.3268C41.5693 58.3268 35.2505 51.952 35.2505 44.1164C35.2505 36.2807 41.5693 29.9059 49.3363 29.9059C57.1032 29.9059 63.422 36.2807 63.422 44.1164C63.4219 51.952 57.1032 58.3268 49.3363 58.3268Z" fill="white"/>
<path d="M55.5104 39.6872H53.7388V37.8887C53.7388 36.3072 52.4579 35.0208 50.8836 35.0208H47.7884C46.2141 35.0208 44.9333 36.3072 44.9333 37.8887V39.6872H43.1616C41.5873 39.6872 40.3065 40.9736 40.3065 42.5551V45.6778C40.3065 47.2592 41.5873 48.5457 43.1616 48.5457H44.9333V50.3444C44.9333 51.9256 46.2141 53.2123 47.7884 53.2123H50.8836C52.4579 53.2123 53.7388 51.9258 53.7388 50.3444V48.5457H55.5104C57.0848 48.5457 58.3656 47.2592 58.3656 45.6778V42.5551C58.3657 40.9736 57.0848 39.6872 55.5104 39.6872ZM55.7876 45.6777C55.7876 45.8374 55.6633 45.9675 55.5106 45.9675H52.4498C51.738 45.9675 51.1608 46.5446 51.1608 47.2565V50.3442C51.1608 50.5039 51.0365 50.634 50.8837 50.634H47.7886C47.6357 50.634 47.5116 50.5041 47.5116 50.3442V47.2565C47.5116 46.5446 46.9343 45.9675 46.2225 45.9675H43.1617C43.0089 45.9675 42.8847 45.8375 42.8847 45.6777V42.5549C42.8847 42.3951 43.009 42.2652 43.1617 42.2652H46.2225C46.9343 42.2652 47.5116 41.688 47.5116 40.9761V37.8885C47.5116 37.7287 47.6358 37.5987 47.7886 37.5987H50.8837C51.0365 37.5987 51.1608 37.7287 51.1608 37.8885V40.9761C51.1608 41.688 51.738 42.2652 52.4498 42.2652H55.5106C55.6635 42.2652 55.7876 42.3951 55.7876 42.5549V45.6777Z" fill="white"/>
</g>
<defs>
<clipPath id="clip0_3401_21995">
<rect width="66" height="66" fill="white"/>
</clipPath>
</defs>
</svg>
