<svg width="66" height="76" viewBox="0 0 66 76" fill="none" xmlns="http://www.w3.org/2000/svg">
<path d="M10.211 13.2057H55.3051V45.2523C55.3051 50.8078 53.1305 56.1358 49.2597 60.0641C45.389 63.9924 40.1391 66.1993 34.665 66.1993H30.848C25.3744 66.1985 20.1253 63.9912 16.2552 60.063C12.3851 56.1347 10.211 50.8073 10.211 45.2523V13.2057Z" fill="#213F91"/>
<path d="M14.9971 13.2057H51.0424V44.778C51.0424 49.3119 49.2677 53.6602 46.1087 56.8662C42.9497 60.0722 38.6651 61.8733 34.1976 61.8733H31.8419C27.3744 61.8733 23.0898 60.0722 19.9308 56.8662C16.7718 53.6602 14.9971 49.3119 14.9971 44.778V13.2057Z" fill="#6BBEE5"/>
<path d="M34.9268 40.8693L31.412 42.4631L29.3929 46.1819L17.652 46.5614L16.9789 43.222L15.9319 41.2487L22.1389 41.5523L23.3355 42.6148L29.9163 42.4631L34.9268 40.8693Z" fill="#1C3F8F"/>
<path d="M21.444 41.9257L21.7556 31.9044L22.0672 41.9257H21.444Z" fill="#1C3F8F"/>
<path d="M19.0602 41.3281L19.3718 36.0534L19.6834 41.3281H19.0602Z" fill="#1C3F8F"/>
<path d="M30.2434 43.902L29.4333 38.6906L30.5519 43.8451L30.2434 43.902Z" fill="#1C3F8F"/>
<path d="M32.7673 41.7896L31.3932 38.6906L33.0478 41.6473L32.7673 41.7896Z" fill="#1C3F8F"/>
<path d="M25.6505 43.2509L25.9621 30.7757L26.2737 43.2509H25.6505Z" fill="#1C3F8F"/>
<path d="M18.1099 43.6402C18.5181 43.6402 18.9263 43.6686 19.3345 43.6845C19.7427 43.7003 20.1509 43.7287 20.5591 43.7477C21.3754 43.792 22.1897 43.8478 23.002 43.9153H22.9802C24.1331 43.8373 25.288 43.7719 26.4451 43.7192C27.6011 43.6781 28.7571 43.637 29.9163 43.6402C28.7665 43.7888 27.6136 43.8868 26.4607 43.988C25.3078 44.0892 24.1549 44.1588 22.9989 44.222H22.977C22.1638 44.143 21.3505 44.0576 20.5404 43.9596C20.1353 43.9121 19.7302 43.871 19.3251 43.8141C18.9201 43.7572 18.515 43.7161 18.1099 43.6402Z" fill="#FEFFFF"/>
<path d="M18.2315 41.8941H17.8295V42.6246H18.2315V41.8941Z" fill="#FEFFFF"/>
<path d="M19.3314 41.9449H18.9294V42.6754H19.3314V41.9449Z" fill="#FEFFFF"/>
<path d="M20.531 41.9449H20.1291V42.6754H20.531V41.9449Z" fill="#FEFFFF"/>
<path d="M21.5126 41.9449H21.1106V42.6754H21.5126V41.9449Z" fill="#FEFFFF"/>
<path d="M22.4598 41.9449H22.0579V42.6754H22.4598V41.9449Z" fill="#FEFFFF"/>
<path d="M24.9058 36.1642H27.0745L28.1214 38.4031H24.0115L24.9058 36.1642Z" fill="white" stroke="#21408F" stroke-width="0.684404" stroke-miterlimit="10"/>
<path d="M25.2424 34.1527L24.9807 35.1014H27.0746L26.7007 34.0009L25.2424 34.1527Z" fill="white" stroke="#21408F" stroke-width="0.684404" stroke-miterlimit="10"/>
<path d="M19.4435 36.8755L17.5148 40.6798H20.4407L19.4435 36.8755Z" fill="white" stroke="#21408F" stroke-width="0.684404" stroke-miterlimit="10"/>
<path d="M28.9441 37.7577L29.1684 40.6796H31.4493L28.9441 37.7577Z" fill="white" stroke="#21408F" stroke-width="0.684404" stroke-miterlimit="10"/>
<path d="M24.0115 39.0257L24.9463 40.9863L26.526 40.3602L24.0115 39.0257Z" fill="white" stroke="#21408F" stroke-width="0.684404" stroke-miterlimit="10"/>
<path d="M29.9163 37.1884L31.8232 40.3571H33.6741L29.9163 37.1884Z" fill="white" stroke="#21408F" stroke-width="0.684404" stroke-miterlimit="10"/>
<path d="M20.8301 34.5512H22.6249L22.2572 33.5835H20.8301V34.5512Z" fill="white" stroke="#21408F" stroke-width="0.684404" stroke-miterlimit="10"/>
<path d="M20.531 36.1642H23.1484L23.7467 37.9003H20.1291L20.531 36.1642Z" fill="white" stroke="#21408F" stroke-width="0.684404" stroke-miterlimit="10"/>
<path d="M25.9622 31.7908L24.3356 32.0185L25.9622 32.4169V31.7908Z" fill="#21408F"/>
<path d="M21.7556 32.4171L20.1291 32.6448L21.7556 33.0432V32.4171Z" fill="#21408F"/>
<mask id="mask0_3332_5746" style="mask-type:luminance" maskUnits="userSpaceOnUse" x="14" y="23" width="38" height="39">
<path d="M14.9971 23.6224H51.0424V44.835C51.0424 49.369 49.2677 53.7173 46.1087 56.9233C42.9497 60.1293 38.6651 61.9304 34.1976 61.9304H31.8419C27.3744 61.9304 23.0898 60.1293 19.9308 56.9233C16.7718 53.7173 14.9971 49.369 14.9971 44.835V23.6224Z" fill="white"/>
</mask>
<g mask="url(#mask0_3332_5746)">
<path d="M14.7291 46.7672H51.3104C51.3104 50.7233 49.7619 54.5174 47.0055 57.3148C44.2491 60.1122 40.5106 61.6837 36.6125 61.6837H29.4271C25.5289 61.6837 21.7905 60.1122 19.0341 57.3148C16.2777 54.5174 14.7291 50.7233 14.7291 46.7672Z" fill="white"/>
<path d="M11.1146 47.2888L12.8439 45.6792C13.1337 45.4178 13.5079 45.2734 13.8956 45.2734C14.2832 45.2734 14.6574 45.4178 14.9472 45.6792L15.6233 46.3116C15.9131 46.573 16.2873 46.7174 16.675 46.7174C17.0627 46.7174 17.4369 46.573 17.7266 46.3116L18.6614 45.4515C18.9512 45.1901 19.3254 45.0457 19.713 45.0457C20.1007 45.0457 20.4749 45.1901 20.7647 45.4515L21.4907 46.1282C21.7813 46.3892 22.1559 46.5333 22.5439 46.5333C22.9319 46.5333 23.3065 46.3892 23.5971 46.1282L24.3979 45.3819C24.6876 45.1205 25.0618 44.9761 25.4495 44.9761C25.8372 44.9761 26.2114 45.1205 26.5011 45.3819L27.3767 46.1978C27.6665 46.4592 28.0407 46.6036 28.4284 46.6036C28.816 46.6036 29.1902 46.4592 29.48 46.1978L30.4428 45.3029C30.7326 45.0415 31.1068 44.8971 31.4945 44.8971C31.8821 44.8971 32.2563 45.0415 32.5461 45.3029L33.618 46.299C33.9085 46.56 34.2832 46.704 34.6712 46.704C35.0592 46.704 35.4338 46.56 35.7244 46.299L36.7402 45.3503C37.0307 45.0893 37.4053 44.9452 37.7934 44.9452C38.1814 44.9452 38.556 45.0893 38.8466 45.3503L39.8686 46.299C40.1583 46.5604 40.5325 46.7048 40.9202 46.7048C41.3079 46.7048 41.6821 46.5604 41.9719 46.299L43.1964 45.1637C43.4862 44.9023 43.8604 44.7579 44.2481 44.7579C44.6357 44.7579 45.0099 44.9023 45.2997 45.1637L46.4744 46.2547C46.7642 46.5161 47.1384 46.6605 47.526 46.6605C47.9137 46.6605 48.2879 46.5161 48.5777 46.2547L50.011 44.9044C50.3008 44.643 50.675 44.4986 51.0626 44.4986C51.4503 44.4986 51.8245 44.643 52.1143 44.9044L54.6382 47.2508" fill="white"/>
<path d="M11.1146 47.2888L12.8439 45.6792C13.1337 45.4178 13.5079 45.2734 13.8956 45.2734C14.2832 45.2734 14.6574 45.4178 14.9472 45.6792L15.6233 46.3116C15.9131 46.573 16.2873 46.7174 16.675 46.7174C17.0627 46.7174 17.4369 46.573 17.7266 46.3116L18.6614 45.4515C18.9512 45.1901 19.3254 45.0457 19.713 45.0457C20.1007 45.0457 20.4749 45.1901 20.7647 45.4515L21.4907 46.1282C21.7813 46.3892 22.1559 46.5333 22.5439 46.5333C22.9319 46.5333 23.3065 46.3892 23.5971 46.1282L24.3979 45.3819C24.6876 45.1205 25.0618 44.9761 25.4495 44.9761C25.8372 44.9761 26.2114 45.1205 26.5011 45.3819L27.3767 46.1978C27.6665 46.4592 28.0407 46.6036 28.4284 46.6036C28.816 46.6036 29.1902 46.4592 29.48 46.1978L30.4428 45.3029C30.7326 45.0415 31.1068 44.8971 31.4945 44.8971C31.8821 44.8971 32.2563 45.0415 32.5461 45.3029L33.618 46.299C33.9085 46.56 34.2832 46.704 34.6712 46.704C35.0592 46.704 35.4338 46.56 35.7244 46.299L36.7402 45.3503C37.0307 45.0893 37.4053 44.9452 37.7934 44.9452C38.1814 44.9452 38.556 45.0893 38.8466 45.3503L39.8686 46.299C40.1583 46.5604 40.5325 46.7048 40.9202 46.7048C41.3079 46.7048 41.6821 46.5604 41.9719 46.299L43.1964 45.1637C43.4862 44.9023 43.8604 44.7579 44.2481 44.7579C44.6357 44.7579 45.0099 44.9023 45.2997 45.1637L46.4744 46.2547C46.7642 46.5161 47.1384 46.6605 47.526 46.6605C47.9137 46.6605 48.2879 46.5161 48.5777 46.2547L50.011 44.9044C50.3008 44.643 50.675 44.4986 51.0626 44.4986C51.4503 44.4986 51.8245 44.643 52.1143 44.9044L54.6382 47.2508" stroke="#21408F" stroke-width="0.912538" stroke-miterlimit="10"/>
<path d="M11.1146 47.956L12.8439 46.3496C13.1337 46.0882 13.5079 45.9438 13.8956 45.9438C14.2832 45.9438 14.6574 46.0882 14.9472 46.3496L15.6233 46.9821C15.9131 47.2434 16.2873 47.3878 16.675 47.3878C17.0627 47.3878 17.4369 47.2434 17.7266 46.9821L18.6614 46.1187C18.9512 45.8574 19.3254 45.713 19.713 45.713C20.1007 45.713 20.4749 45.8574 20.7647 46.1187L21.4813 46.8018C21.7719 47.0628 22.1465 47.2069 22.5345 47.2069C22.9226 47.2069 23.2972 47.0628 23.5877 46.8018L24.3885 46.0587C24.6783 45.7973 25.0525 45.6529 25.4402 45.6529C25.8278 45.6529 26.202 45.7973 26.4918 46.0587L27.3674 46.8714C27.6571 47.1328 28.0313 47.2772 28.419 47.2772C28.8067 47.2772 29.1809 47.1328 29.4706 46.8714L30.4335 45.9764C30.7232 45.715 31.0974 45.5707 31.4851 45.5707C31.8728 45.5707 32.247 45.715 32.5367 45.9764L33.6086 46.9757C33.8992 47.2367 34.2738 47.3808 34.6618 47.3808C35.0498 47.3808 35.4245 47.2367 35.715 46.9757L36.7308 46.027C37.0214 45.7661 37.396 45.622 37.784 45.622C38.172 45.622 38.5466 45.7661 38.8372 46.027L39.8592 46.9757C40.149 47.2371 40.5232 47.3815 40.9109 47.3815C41.2986 47.3815 41.6728 47.2371 41.9625 46.9757L43.1871 45.8373C43.4768 45.5759 43.851 45.4315 44.2387 45.4315C44.6264 45.4315 45.0006 45.5759 45.2903 45.8373L46.4651 46.9283C46.7548 47.1897 47.129 47.3341 47.5167 47.3341C47.9044 47.3341 48.2786 47.1897 48.5683 46.9283L50.011 45.5875C50.3008 45.3261 50.675 45.1817 51.0626 45.1817C51.4503 45.1817 51.8245 45.3261 52.1143 45.5875L54.6382 47.9339" fill="white"/>
<path d="M11.1146 47.956L12.8439 46.3496C13.1337 46.0882 13.5079 45.9438 13.8956 45.9438C14.2832 45.9438 14.6574 46.0882 14.9472 46.3496L15.6233 46.9821C15.9131 47.2434 16.2873 47.3878 16.675 47.3878C17.0627 47.3878 17.4369 47.2434 17.7266 46.9821L18.6614 46.1187C18.9512 45.8574 19.3254 45.713 19.713 45.713C20.1007 45.713 20.4749 45.8574 20.7647 46.1187L21.4813 46.8018C21.7719 47.0628 22.1465 47.2069 22.5345 47.2069C22.9226 47.2069 23.2972 47.0628 23.5877 46.8018L24.3885 46.0587C24.6783 45.7973 25.0525 45.6529 25.4402 45.6529C25.8278 45.6529 26.202 45.7973 26.4918 46.0587L27.3674 46.8714C27.6571 47.1328 28.0313 47.2772 28.419 47.2772C28.8067 47.2772 29.1809 47.1328 29.4706 46.8714L30.4335 45.9764C30.7232 45.7151 31.0974 45.5707 31.4851 45.5707C31.8728 45.5707 32.247 45.7151 32.5367 45.9764L33.6086 46.9757C33.8992 47.2367 34.2738 47.3808 34.6618 47.3808C35.0498 47.3808 35.4245 47.2367 35.715 46.9757L36.7308 46.027C37.0214 45.7661 37.396 45.622 37.784 45.622C38.172 45.622 38.5466 45.7661 38.8372 46.027L39.8592 46.9757C40.149 47.2371 40.5232 47.3815 40.9109 47.3815C41.2986 47.3815 41.6728 47.2371 41.9625 46.9757L43.1871 45.8373C43.4768 45.5759 43.851 45.4315 44.2387 45.4315C44.6264 45.4315 45.0006 45.5759 45.2903 45.8373L46.4651 46.9283C46.7548 47.1897 47.129 47.3341 47.5167 47.3341C47.9044 47.3341 48.2786 47.1897 48.5683 46.9283L50.011 45.5875C50.3008 45.3261 50.675 45.1817 51.0626 45.1817C51.4503 45.1817 51.8245 45.3261 52.1143 45.5875L54.6382 47.9339" stroke="#21408F" stroke-width="0.912538" stroke-miterlimit="10"/>
<path d="M11.1146 49.5438L12.8439 47.9342C13.1337 47.6728 13.5079 47.5284 13.8956 47.5284C14.2832 47.5284 14.6574 47.6728 14.9472 47.9342L15.6233 48.5666C15.9131 48.828 16.2873 48.9724 16.675 48.9724C17.0627 48.9724 17.4369 48.828 17.7266 48.5666L18.6614 47.7065C18.9512 47.4451 19.3254 47.3007 19.713 47.3007C20.1007 47.3007 20.4749 47.4451 20.7647 47.7065L21.4813 48.3832C21.7719 48.6442 22.1465 48.7883 22.5345 48.7883C22.9226 48.7883 23.2972 48.6442 23.5877 48.3832L24.3885 47.6369C24.6783 47.3755 25.0525 47.2311 25.4402 47.2311C25.8278 47.2311 26.202 47.3755 26.4918 47.6369L27.3674 48.4528C27.6571 48.7142 28.0313 48.8586 28.419 48.8586C28.8067 48.8586 29.1809 48.7142 29.4706 48.4528L30.4335 47.5579C30.7232 47.2965 31.0974 47.1521 31.4851 47.1521C31.8728 47.1521 32.247 47.2965 32.5367 47.5579L33.6086 48.5571C33.8992 48.8181 34.2738 48.9622 34.6618 48.9622C35.0498 48.9622 35.4245 48.8181 35.715 48.5571L36.7308 47.6084C37.0214 47.3475 37.396 47.2034 37.784 47.2034C38.172 47.2034 38.5466 47.3475 38.8372 47.6084L39.8592 48.5571C40.149 48.8185 40.5232 48.9629 40.9109 48.9629C41.2986 48.9629 41.6728 48.8185 41.9625 48.5571L43.1871 47.4345C43.4768 47.1731 43.851 47.0287 44.2387 47.0287C44.6264 47.0287 45.0006 47.1731 45.2903 47.4345L46.4651 48.5255C46.7548 48.7869 47.129 48.9313 47.5167 48.9313C47.9044 48.9313 48.2786 48.7869 48.5683 48.5255L50.011 47.1815C50.3008 46.9201 50.675 46.7758 51.0626 46.7758C51.4503 46.7758 51.8245 46.9201 52.1143 47.1815L54.6382 49.5311" fill="white"/>
<path d="M11.1146 49.5438L12.8439 47.9342C13.1337 47.6728 13.5079 47.5284 13.8956 47.5284C14.2832 47.5284 14.6574 47.6728 14.9472 47.9342L15.6233 48.5666C15.9131 48.828 16.2873 48.9724 16.675 48.9724C17.0627 48.9724 17.4369 48.828 17.7266 48.5666L18.6614 47.7065C18.9512 47.4451 19.3254 47.3007 19.713 47.3007C20.1007 47.3007 20.4749 47.4451 20.7647 47.7065L21.4813 48.3832C21.7719 48.6442 22.1465 48.7883 22.5345 48.7883C22.9226 48.7883 23.2972 48.6442 23.5877 48.3832L24.3885 47.6369C24.6783 47.3755 25.0525 47.2311 25.4402 47.2311C25.8278 47.2311 26.202 47.3755 26.4918 47.6369L27.3674 48.4528C27.6571 48.7142 28.0313 48.8586 28.419 48.8586C28.8067 48.8586 29.1809 48.7142 29.4706 48.4528L30.4335 47.5579C30.7232 47.2965 31.0974 47.1521 31.4851 47.1521C31.8728 47.1521 32.247 47.2965 32.5367 47.5579L33.6086 48.5571C33.8992 48.8181 34.2738 48.9622 34.6618 48.9622C35.0498 48.9622 35.4245 48.8181 35.715 48.5571L36.7308 47.6084C37.0214 47.3475 37.396 47.2034 37.784 47.2034C38.172 47.2034 38.5466 47.3475 38.8372 47.6084L39.8592 48.5571C40.149 48.8185 40.5232 48.9629 40.9109 48.9629C41.2986 48.9629 41.6728 48.8185 41.9625 48.5571L43.1871 47.4345C43.4768 47.1731 43.851 47.0287 44.2387 47.0287C44.6264 47.0287 45.0006 47.1731 45.2903 47.4345L46.4651 48.5255C46.7548 48.7869 47.129 48.9313 47.5167 48.9313C47.9044 48.9313 48.2786 48.7869 48.5683 48.5255L50.011 47.1815C50.3008 46.9201 50.675 46.7758 51.0626 46.7758C51.4503 46.7758 51.8245 46.9201 52.1143 47.1815L54.6382 49.5311" stroke="#21408F" stroke-width="0.912538" stroke-miterlimit="10"/>
<path d="M11.1146 50.0902L12.8439 48.4806C13.1337 48.2192 13.5079 48.0748 13.8956 48.0748C14.2832 48.0748 14.6574 48.2192 14.9472 48.4806L15.6233 49.1131C15.9131 49.3745 16.2873 49.5189 16.675 49.5189C17.0627 49.5189 17.4369 49.3745 17.7266 49.1131L18.6614 48.2529C18.9512 47.9915 19.3254 47.8472 19.713 47.8472C20.1007 47.8472 20.4749 47.9915 20.7647 48.2529L21.4907 48.9297C21.7813 49.1907 22.1559 49.3347 22.5439 49.3347C22.9319 49.3347 23.3065 49.1907 23.5971 48.9297L24.3979 48.1834C24.6876 47.922 25.0618 47.7776 25.4495 47.7776C25.8372 47.7776 26.2114 47.922 26.5011 48.1834L27.3767 48.9992C27.6665 49.2606 28.0407 49.405 28.4284 49.405C28.816 49.405 29.1902 49.2606 29.48 48.9992L30.4428 48.1043C30.7326 47.8429 31.1068 47.6985 31.4945 47.6985C31.8821 47.6985 32.2563 47.8429 32.5461 48.1043L33.618 49.1036C33.9091 49.3633 34.2835 49.5065 34.6712 49.5065C35.0588 49.5065 35.4332 49.3633 35.7244 49.1036L36.7402 48.1549C37.0307 47.8939 37.4053 47.7499 37.7934 47.7499C38.1814 47.7499 38.556 47.8939 38.8465 48.1549L39.8686 49.1036C40.1583 49.365 40.5325 49.5094 40.9202 49.5094C41.3079 49.5094 41.6821 49.365 41.9718 49.1036L43.1964 47.9683C43.4862 47.7069 43.8604 47.5626 44.2481 47.5626C44.6357 47.5626 45.0099 47.7069 45.2997 47.9683L46.4744 49.0593C46.7642 49.3207 47.1384 49.4651 47.526 49.4651C47.9137 49.4651 48.2879 49.3207 48.5777 49.0593L50.0204 47.7154C50.3101 47.454 50.6843 47.3096 51.072 47.3096C51.4597 47.3096 51.8339 47.454 52.1236 47.7154L54.6476 50.0649" fill="white"/>
<path d="M11.1146 50.0902L12.8439 48.4806C13.1337 48.2192 13.5079 48.0748 13.8956 48.0748C14.2832 48.0748 14.6574 48.2192 14.9472 48.4806L15.6233 49.1131C15.9131 49.3745 16.2873 49.5189 16.675 49.5189C17.0627 49.5189 17.4369 49.3745 17.7266 49.1131L18.6614 48.2529C18.9512 47.9915 19.3254 47.8472 19.713 47.8472C20.1007 47.8472 20.4749 47.9915 20.7647 48.2529L21.4907 48.9297C21.7813 49.1907 22.1559 49.3347 22.5439 49.3347C22.9319 49.3347 23.3065 49.1907 23.5971 48.9297L24.3979 48.1834C24.6876 47.922 25.0618 47.7776 25.4495 47.7776C25.8372 47.7776 26.2114 47.922 26.5011 48.1834L27.3767 48.9992C27.6665 49.2606 28.0407 49.405 28.4284 49.405C28.816 49.405 29.1902 49.2606 29.48 48.9992L30.4428 48.1043C30.7326 47.8429 31.1068 47.6985 31.4945 47.6985C31.8821 47.6985 32.2563 47.8429 32.5461 48.1043L33.618 49.1036C33.9091 49.3633 34.2835 49.5065 34.6712 49.5065C35.0588 49.5065 35.4332 49.3633 35.7244 49.1036L36.7402 48.1549C37.0307 47.8939 37.4053 47.7499 37.7934 47.7499C38.1814 47.7499 38.556 47.8939 38.8465 48.1549L39.8686 49.1036C40.1583 49.365 40.5325 49.5094 40.9202 49.5094C41.3079 49.5094 41.6821 49.365 41.9719 49.1036L43.1964 47.9683C43.4862 47.7069 43.8604 47.5626 44.2481 47.5626C44.6357 47.5626 45.0099 47.7069 45.2997 47.9683L46.4744 49.0593C46.7642 49.3207 47.1384 49.4651 47.526 49.4651C47.9137 49.4651 48.2879 49.3207 48.5777 49.0593L50.0204 47.7154C50.3101 47.454 50.6843 47.3096 51.072 47.3096C51.4597 47.3096 51.8339 47.454 52.1236 47.7154L54.6476 50.0649" stroke="#21408F" stroke-width="0.912538" stroke-miterlimit="10"/>
</g>
<mask id="mask1_3332_5746" style="mask-type:luminance" maskUnits="userSpaceOnUse" x="14" y="13" width="38" height="49">
<path d="M14.9971 13.2057H51.0424V44.778C51.0424 49.3119 49.2677 53.6602 46.1087 56.8662C42.9497 60.0722 38.6651 61.8733 34.1976 61.8733H31.8419C27.3744 61.8733 23.0898 60.0722 19.9308 56.8662C16.7718 53.6602 14.9971 49.3119 14.9971 44.778V13.2057Z" fill="white"/>
</mask>
<g mask="url(#mask1_3332_5746)">
<path d="M47.8922 57.8289V57.81C45.5397 55.9442 43.8415 53.31 42.8132 50.464C41.8328 47.5933 41.351 44.5716 41.3892 41.5336C41.3817 39.4769 41.5401 37.423 41.8628 35.3925C41.9844 34.6304 42.1402 33.8398 42.6013 33.2231C42.8828 32.8749 43.2099 32.5674 43.5735 32.3092L47.0011 29.615C46.3779 29.1564 45.5895 28.6663 44.8822 28.9825C44.5756 29.1472 44.311 29.3821 44.1094 29.6687L40.9935 33.4224C40.4849 31.8902 40.3209 30.2618 40.5136 28.6568C40.6601 27.433 40.9156 25.9467 39.9652 25.1783C39.6432 28.018 39.3794 30.8641 39.1738 33.7165L37.703 29.5391C37.4818 28.9066 37.1546 28.1888 36.5065 28.0686C35.9051 27.9611 35.2788 28.486 34.9485 28.9509C34.5684 29.4916 34.6806 30.0482 35.0638 30.6206C35.4126 31.0674 35.7905 31.49 36.1949 31.8855C37.298 33.1251 37.8433 34.7916 38.0271 36.4518C38.211 38.1121 38.0614 39.7881 37.9336 41.4546C37.3915 48.5539 37.2076 55.9063 34.2163 62.3479C34.0356 62.7368 33.8424 63.1827 34.0075 63.5811C34.2755 64.2357 35.2009 64.1757 35.8771 63.9796C37.9482 63.3868 39.9645 62.6122 41.9034 61.6648C42.0712 61.6038 42.2176 61.4938 42.324 61.3486C42.3892 61.1942 42.4129 61.0251 42.3926 60.8584L42.1215 54.2555C42.8132 55.0461 43.1404 56.0897 43.5797 57.0478C44.0191 58.006 44.6703 58.9737 45.6674 59.2868C46.6645 59.5998 47.9608 58.8725 47.8922 57.8289Z" fill="white" stroke="#21408F" stroke-width="0.912538" stroke-miterlimit="10"/>
<path d="M45.0162 34.3491C44.998 34.6348 45.0908 34.9163 45.2748 35.1333C45.521 35.3705 46.06 35.225 46.0133 34.8835C46.1566 34.9133 46.3057 34.891 46.4345 34.8205C46.5632 34.7499 46.6634 34.6357 46.7175 34.4977C46.8421 34.2257 46.8577 33.9158 46.9574 33.6376C47.0728 33.3713 47.2204 33.1206 47.3968 32.8913C47.6422 32.5378 47.8639 32.1681 48.0605 31.7845C48.4531 31.0223 48.7398 30.0673 48.3035 29.3305C48.1228 29.0143 47.8237 28.7708 47.7645 28.4198C47.7271 28.2206 47.7645 28.015 47.7458 27.8126C47.6305 27.079 46.5835 26.8639 46.3685 26.1366C46.1722 25.4883 46.7705 24.8559 46.7705 24.1791C46.7705 23.5024 46.1473 22.9522 45.5864 22.5189C45.0255 22.0857 44.446 21.4754 44.58 20.7797C44.1655 20.9757 43.7698 20.4413 43.6982 19.9796C43.6265 19.5179 43.6265 18.9677 43.2401 18.7147C42.8537 18.4617 42.2586 18.7147 41.8286 18.506C41.6685 18.409 41.5296 18.2799 41.4204 18.1265L40.2363 16.6782C40.0587 16.7225 40.0774 16.9754 40.0151 17.1494C39.8406 17.6522 39.0149 17.4308 38.6503 17.8135C38.5257 17.9463 38.4727 18.1297 38.3387 18.2657C37.8589 18.7242 36.9646 17.9494 36.4473 18.3542C36.3289 18.4522 36.2541 18.5977 36.1357 18.6704C36.0173 18.7432 35.7369 18.7558 35.553 18.8412C35.4247 18.9203 35.3198 19.0333 35.2496 19.168C35.1794 19.3027 35.1464 19.4543 35.1542 19.6065C35.1653 19.9014 35.1497 20.1967 35.1075 20.4888C35.0545 20.6975 34.9392 20.8904 34.8987 21.1022C34.8773 21.2461 34.8887 21.393 34.9322 21.5317C34.9756 21.6703 35.0499 21.797 35.1493 21.9018C35.2487 22.0067 35.3706 22.0869 35.5054 22.1364C35.6402 22.1858 35.7845 22.2031 35.927 22.1869C35.8046 22.4736 35.7522 22.786 35.7743 23.0976C35.7901 23.2527 35.8595 23.3972 35.9701 23.5054C36.0807 23.6136 36.2255 23.6786 36.3788 23.689C36.6717 23.67 36.9459 23.3886 37.2138 23.5056C37.2357 24.0874 37.3136 24.7705 37.8121 25.0551C38.4665 25.4314 39.4667 24.8654 39.9715 25.4314C40.146 25.6306 40.2021 25.9184 40.3921 26.1018C40.6726 26.3674 41.1181 26.3042 41.4765 26.4497C42.0249 26.671 42.2929 27.3636 42.8537 27.5596C43.0641 27.6008 43.2722 27.6536 43.4769 27.7177C43.8633 27.898 44.0066 28.3818 44.0378 28.8119C44.1126 29.8713 43.7729 30.9338 43.9256 31.9742C44.0596 32.9229 44.5737 33.7482 45.0785 34.5483" fill="white"/>
<path d="M45.0162 34.3491C44.998 34.6348 45.0908 34.9163 45.2748 35.1333C45.521 35.3705 46.06 35.225 46.0133 34.8835C46.1566 34.9133 46.3057 34.891 46.4345 34.8205C46.5632 34.7499 46.6634 34.6357 46.7175 34.4977C46.8421 34.2257 46.8577 33.9158 46.9574 33.6376C47.0728 33.3713 47.2204 33.1206 47.3968 32.8913C47.6422 32.5378 47.8639 32.1681 48.0605 31.7845C48.4531 31.0223 48.7398 30.0673 48.3035 29.3305C48.1228 29.0143 47.8237 28.7708 47.7645 28.4198C47.7271 28.2206 47.7645 28.015 47.7458 27.8126C47.6305 27.079 46.5835 26.8639 46.3685 26.1366C46.1722 25.4883 46.7705 24.8559 46.7705 24.1791C46.7705 23.5024 46.1473 22.9522 45.5864 22.5189C45.0255 22.0857 44.446 21.4754 44.58 20.7797C44.1655 20.9757 43.7698 20.4413 43.6982 19.9796C43.6265 19.5179 43.6265 18.9677 43.2401 18.7147C42.8537 18.4617 42.2586 18.7147 41.8286 18.506C41.6685 18.409 41.5296 18.2799 41.4204 18.1265L40.2363 16.6782C40.0587 16.7225 40.0774 16.9754 40.0151 17.1494C39.8406 17.6522 39.0149 17.4308 38.6503 17.8135C38.5257 17.9463 38.4727 18.1297 38.3387 18.2657C37.8589 18.7242 36.9646 17.9494 36.4473 18.3542C36.3289 18.4522 36.2541 18.5977 36.1357 18.6704C36.0173 18.7432 35.7369 18.7558 35.553 18.8412C35.4247 18.9203 35.3198 19.0333 35.2496 19.168C35.1794 19.3027 35.1464 19.4543 35.1542 19.6065C35.1653 19.9014 35.1497 20.1967 35.1075 20.4888C35.0545 20.6975 34.9392 20.8904 34.8987 21.1022C34.8773 21.2461 34.8887 21.393 34.9322 21.5317C34.9756 21.6703 35.0499 21.797 35.1493 21.9018C35.2487 22.0067 35.3706 22.0869 35.5054 22.1364C35.6402 22.1858 35.7845 22.2031 35.927 22.1869C35.8046 22.4736 35.7522 22.786 35.7743 23.0976C35.7901 23.2527 35.8595 23.3972 35.9701 23.5054C36.0807 23.6136 36.2255 23.6786 36.3788 23.689C36.6717 23.67 36.9459 23.3886 37.2138 23.5056C37.2357 24.0874 37.3136 24.7705 37.8121 25.0551C38.4665 25.4314 39.4667 24.8654 39.9715 25.4314C40.146 25.6306 40.2021 25.9184 40.3921 26.1018C40.6726 26.3674 41.1181 26.3042 41.4765 26.4497C42.0249 26.671 42.2929 27.3636 42.8537 27.5596C43.0641 27.6008 43.2722 27.6536 43.4769 27.7177C43.8633 27.898 44.0066 28.3818 44.0378 28.8119C44.1126 29.8713 43.7729 30.9338 43.9256 31.9742C44.0596 32.9229 44.5737 33.7482 45.0785 34.5483" stroke="#21408F" stroke-width="0.912538" stroke-miterlimit="10"/>
<path d="M35.1761 33.2453C34.5248 33.2611 34.3161 34.2414 33.7022 34.4533C33.1663 34.6398 32.5961 34.0864 32.5618 33.5046C32.54 33.1125 32.6927 32.7298 32.6927 32.3377C32.6927 31.7242 32.3125 31.1297 32.4465 30.532C32.5244 30.1937 32.7581 29.8996 32.7394 29.5486C32.7207 29.128 32.3437 28.8339 32.0975 28.4955C31.847 28.1239 31.7348 27.674 31.781 27.2262C31.8272 26.7784 32.0289 26.3619 32.3499 26.0511C32.6615 25.7791 33.0354 25.6147 33.3283 25.3301C33.7116 24.9601 33.9858 24.3592 34.5155 24.3276C34.8271 24.3086 35.1636 24.53 35.4814 24.4415C35.7993 24.3529 35.927 24.0588 36.1545 23.8628C36.3235 23.7212 36.5312 23.6356 36.7496 23.6175C36.968 23.5994 37.1866 23.6497 37.3759 23.7616C37.7561 23.9956 38.0864 24.4921 38.5102 24.3624C38.3356 24.4555 38.184 24.5873 38.0664 24.7479C37.9489 24.9086 37.8684 25.094 37.831 25.2904C37.7936 25.4869 37.8002 25.6894 37.8504 25.8829C37.9005 26.0764 37.9929 26.256 38.1207 26.4084L37.1142 29.441C36.9175 30.1357 36.5294 30.7588 35.9956 31.2372C35.8335 31.3953 34.8988 33.2516 35.1761 33.2453Z" fill="white" stroke="#21408F" stroke-width="0.912538" stroke-miterlimit="10"/>
<path d="M45.2717 29.4092C45.2514 29.3423 45.217 29.2806 45.1706 29.2287C45.1243 29.1768 45.0673 29.1359 45.0037 29.1088C44.8541 29.0677 44.6921 29.1594 44.5457 29.1752C44.1749 29.2037 43.9225 28.7609 43.9443 28.3846C44.0193 28.0137 44.1418 27.6544 44.3088 27.3158C44.4335 26.9584 44.4522 26.5062 44.1717 26.2596C43.9412 26.054 43.5766 26.054 43.3678 25.8295C43.1154 25.5575 43.2183 25.1243 43.2837 24.7543C43.3491 24.3843 43.2837 23.8942 42.9254 23.8056C42.7945 23.774 42.648 23.8056 42.5203 23.7645C42.1806 23.638 42.2554 23.1321 42.0716 22.8158C41.8877 22.4996 41.5294 22.4364 41.2022 22.3794C40.7026 22.2634 40.1864 22.2398 39.6785 22.3099C39.4253 22.3479 39.1867 22.4542 38.9877 22.6178C38.7888 22.7813 38.6367 22.9961 38.5474 23.2396C38.482 23.4641 38.4789 23.7329 38.2982 23.872C38.1909 23.9391 38.0727 23.9862 37.9492 24.0112C37.7096 24.084 37.4931 24.2193 37.3211 24.4035C37.1492 24.5878 37.0278 24.8146 36.9692 25.0613C36.9105 25.308 36.9166 25.566 36.9869 25.8095C37.0572 26.0531 37.1891 26.2737 37.3696 26.4493C37.0697 26.6877 36.8322 26.9973 36.6779 27.3507C36.5236 27.7042 36.4572 28.0907 36.4847 28.4763C36.4872 28.6737 36.5578 28.8639 36.6841 29.0139C36.7492 29.0867 36.8397 29.1307 36.9364 29.1367C37.033 29.1426 37.1281 29.1099 37.2014 29.0455C37.3042 28.9349 37.3042 28.7641 37.3821 28.6345C37.6376 28.2139 38.3169 28.5965 38.7656 28.3973C39.2143 28.1981 39.261 27.5941 39.6754 27.4106C39.8277 27.3641 39.9896 27.3605 40.1438 27.4C40.298 27.4396 40.4387 27.5208 40.551 27.6352C40.7722 27.8646 41.0052 28.082 41.249 28.2866C41.3638 28.3444 41.4689 28.4202 41.5606 28.5111C41.6493 28.6898 41.7033 28.8841 41.7195 29.0835C41.7709 29.278 41.8819 29.4509 42.0365 29.5771C42.1911 29.7033 42.3813 29.7763 42.5795 29.7855C42.7104 29.7855 42.8568 29.7855 42.9534 29.8551C43.05 29.9247 43.0531 30.1492 43.0469 30.3105C43.0251 31.0157 43.8477 31.8916 44.583 31.6323C45.3184 31.373 45.5303 30.0417 45.2717 29.4092Z" fill="white" stroke="#21408F" stroke-width="0.912538" stroke-miterlimit="10"/>
</g>
<path d="M21.5967 56.7031C22.4691 56.8549 23.2045 57.1174 24.1206 56.9941C25.0098 56.8831 25.8528 56.5302 26.5604 55.9727C27.5201 55.2011 28.2368 54.0468 29.4021 53.6642C30.4273 53.3258 31.5833 53.7021 32.4309 54.3725C33.2784 55.0429 33.886 55.9821 34.4531 56.9024C34.6478 57.2824 34.9313 57.6081 35.2788 57.8511C35.8553 58.1831 36.5875 58.006 37.1827 57.7151C37.6065 57.5064 38.0333 57.2028 38.1424 56.7411C38.1724 56.5453 38.1621 56.3453 38.1123 56.1538C38.0624 55.9622 37.974 55.7832 37.8526 55.628C37.0705 54.4674 35.5811 53.9804 34.7585 52.8515C34.5274 52.5776 34.4072 52.2251 34.4219 51.8648C34.4874 51.3399 34.9704 50.9826 35.4377 50.7485C36.6841 50.1161 38.0957 49.9105 39.4885 49.7082C40.0244 49.6291 40.6227 49.5627 41.0683 49.8821C41.1307 49.9162 41.1784 49.9725 41.2023 50.0402C41.2082 50.1011 41.198 50.1624 41.1728 50.218C41.1476 50.2736 41.1083 50.3214 41.0589 50.3564C40.6165 50.7928 40.04 51.3399 39.4417 51.2008C37.7716 50.641 35.7805 51.4316 37.3603 52.5005C38.0458 53.0033 38.8653 53.3037 39.5041 53.8697C39.8363 54.1367 40.1122 54.469 40.3151 54.8466C40.518 55.2242 40.6438 55.6394 40.685 56.0675C40.7255 57.0162 40.1865 57.9048 39.5508 58.5974C38.6659 59.5745 37.4912 60.3619 36.1856 60.4473C35.1168 60.4877 34.0691 60.1389 33.2317 59.4638C32.4033 58.7885 31.7257 57.9424 31.2437 56.9814C31.1033 56.6373 30.8779 56.3356 30.5893 56.1055C30.3742 55.9927 30.1341 55.9384 29.8922 55.9479C29.6503 55.9573 29.4149 56.0301 29.209 56.1592C28.797 56.4235 28.4073 56.7218 28.0436 57.051C27.0876 57.7765 25.9108 58.138 24.7189 58.0724C23.7249 58.0155 22.1825 57.5854 21.5967 56.7031Z" fill="white" stroke="#21408F" stroke-width="0.684404" stroke-miterlimit="10"/>
<path d="M41.2209 49.907C41.3258 49.9505 41.4421 49.9572 41.5512 49.926C41.679 49.9007 41.8067 49.8532 41.9376 49.8153C41.8285 49.9007 41.7319 49.9924 41.626 50.0714C41.4961 50.1664 41.3405 50.2183 41.1804 50.22L41.2209 49.907Z" fill="#21408F"/>
<path d="M39.7938 50.0621C39.8873 50.0621 40.1054 49.9893 40.1397 49.8597C40.1739 49.73 40.0805 49.7142 39.9994 49.7205C39.9184 49.7268 39.6878 49.7933 39.6536 49.9261C39.6193 50.0589 39.7097 50.0684 39.7938 50.0621Z" fill="#21408F"/>
<path d="M40.1553 50.8246C40.0494 50.7898 39.8281 50.6633 39.8001 50.54C39.7721 50.4166 39.8967 50.4388 39.9871 50.4672C40.0774 50.4957 40.3174 50.6285 40.3423 50.755C40.3672 50.8815 40.2488 50.8562 40.1553 50.8246Z" fill="#21408F"/>
<path d="M60.1815 -0.00012207H5.21606V13.2056H60.1815V-0.00012207Z" fill="#234091"/>
<path d="M59.0536 1.45178H6.34412V11.7545H59.0536V1.45178Z" fill="#213F91"/>
<path d="M58.3525 2.16342V11.0431H7.04518V2.16342H58.3525ZM59.7547 0.740387H5.64301V12.4662H59.7547V0.740387Z" fill="white"/>
<path d="M12.8501 7.33012C12.7978 7.6094 12.6444 7.85871 12.4201 8.029C12.1958 8.1993 11.9168 8.27825 11.638 8.25035C10.75 8.25035 10.3356 7.61789 10.3356 6.82415C10.3356 6.03042 10.7656 5.37582 11.6692 5.37582C12.4233 5.37582 12.7816 5.82803 12.847 6.29921H12.1958C12.1702 6.17445 12.1001 6.06371 11.9988 5.98837C11.8975 5.91304 11.7723 5.87845 11.6474 5.89128C11.1831 5.89128 11.0055 6.31502 11.0055 6.8115C11.0055 7.30798 11.1551 7.76019 11.6661 7.76019C11.7878 7.76752 11.9081 7.73043 12.0053 7.65562C12.1024 7.58081 12.17 7.47321 12.1958 7.35226L12.8501 7.33012Z" fill="white"/>
<path d="M15.9132 6.79866C15.9278 6.98821 15.9028 7.17876 15.8397 7.35778C15.7766 7.5368 15.6769 7.70023 15.5471 7.83733C15.4173 7.97444 15.2603 8.08211 15.0866 8.15326C14.9129 8.22441 14.7263 8.25743 14.5391 8.25015C13.6572 8.25015 13.2023 7.61769 13.2023 6.80815C13.1904 6.62013 13.2175 6.43166 13.2819 6.25493C13.3462 6.0782 13.4464 5.91713 13.5759 5.78213C13.7054 5.64713 13.8613 5.5412 14.0337 5.47118C14.206 5.40116 14.3909 5.36861 14.5764 5.37563C15.3928 5.37563 15.9132 5.93536 15.9132 6.79866ZM13.8754 6.79866C13.8754 7.33309 14.0966 7.71889 14.5609 7.71889C15.0251 7.71889 15.2401 7.28882 15.2401 6.81131C15.2401 6.3338 15.0438 5.90057 14.5484 5.90057C14.053 5.90057 13.8754 6.26107 13.8754 6.7955V6.79866Z" fill="white"/>
<path d="M18.7269 7.19108C18.7269 6.72306 18.7269 6.18231 18.7487 5.86292H18.7269C18.596 6.46059 18.3592 7.33339 18.1037 8.20934H17.5553C17.3621 7.43142 17.1159 6.43213 16.9975 5.85343H16.9757C17.0006 6.16966 17.0131 6.75152 17.0131 7.23219V8.22199H16.4211V5.40439H17.3901C17.5833 6.10642 17.7921 6.98553 17.8731 7.41244C17.9417 7.02032 18.2096 6.09377 18.4184 5.40439H19.3532V8.22199H18.73L18.7269 7.19108Z" fill="white"/>
<path d="M22.304 7.19108C22.304 6.72306 22.304 6.18231 22.3258 5.86292H22.304C22.1731 6.46059 21.9332 7.33339 21.6808 8.20934H21.1324C20.9392 7.43142 20.693 6.43213 20.5715 5.85343H20.5653C20.5902 6.16966 20.6027 6.75152 20.6027 7.23219V8.22199H20.0106V5.40439H20.9797C21.1729 6.10642 21.3816 6.98553 21.4595 7.41244C21.5281 7.02032 21.7961 6.09377 22.0048 5.40439H22.9396V8.22199H22.3164L22.304 7.19108Z" fill="white"/>
<path d="M24.186 5.40439V7.07092C24.186 7.58321 24.4384 7.73816 24.7219 7.73816C25.0055 7.73816 25.2392 7.54842 25.2392 7.07092V5.40439H25.8904V7.03929C25.8904 8.01012 25.3233 8.25045 24.7095 8.25045C24.0956 8.25045 23.5285 8.00063 23.5285 7.04878V5.40439H24.186Z" fill="white"/>
<path d="M26.5105 8.22199V5.40439H27.3113C27.6447 6.03685 28.2305 7.1057 28.352 7.41244C28.3209 7.13416 28.3209 6.63452 28.3209 6.17599V5.40439H28.9067V8.22199H28.1526C27.8722 7.68756 27.2178 6.42897 27.0807 6.10325C27.0994 6.33094 27.1088 6.92861 27.1088 7.43142V8.22199H26.5105Z" fill="white"/>
<path d="M31.496 7.02348H30.1873V7.67175H31.6331L31.5584 8.20934H29.5579V5.40439H31.5521V5.94198H30.1873V6.48589H31.496V7.02348Z" fill="white"/>
<path d="M33.0291 5.40459H34.1509C34.3307 5.39069 34.5114 5.41657 34.6804 5.48044C34.8494 5.54432 35.0028 5.64466 35.1299 5.77455C35.257 5.90443 35.3548 6.06077 35.4166 6.23275C35.4783 6.40474 35.5026 6.58828 35.4876 6.7707C35.5037 6.96031 35.4798 7.15124 35.4175 7.33072C35.3551 7.5102 35.2557 7.67411 35.1259 7.8115C34.9962 7.94889 34.839 8.05659 34.6649 8.12741C34.4909 8.19823 34.3039 8.23055 34.1166 8.22219H33.0291V5.40459ZM33.6803 7.68144H34.0979C34.5996 7.68144 34.8177 7.29564 34.8177 6.7707C34.8177 6.33431 34.612 5.93586 34.101 5.93586H33.6803V7.68144Z" fill="white"/>
<path d="M37.9336 7.02348H36.6249V7.67175H38.0707L37.9928 8.20934H35.9924V5.40439H37.9897V5.94198H36.6249V6.48589H37.9336V7.02348Z" fill="white"/>
<path d="M42.0342 6.79866C42.0494 6.98832 42.0247 7.17909 41.9618 7.35834C41.8988 7.53758 41.7991 7.70123 41.6692 7.83844C41.5393 7.97566 41.3822 8.08332 41.2082 8.15429C41.0343 8.22526 40.8474 8.25794 40.6601 8.25015C39.7814 8.25015 39.3265 7.61769 39.3265 6.80815C39.3146 6.62013 39.3417 6.43166 39.406 6.25493C39.4703 6.0782 39.5705 5.91713 39.7 5.78213C39.8295 5.64713 39.9855 5.5412 40.1578 5.47118C40.3302 5.40116 40.5151 5.36861 40.7006 5.37563C41.517 5.37563 42.0342 5.93536 42.0342 6.79866ZM39.9995 6.79866C39.9995 7.33309 40.2207 7.71889 40.685 7.71889C41.1493 7.71889 41.3643 7.28882 41.3643 6.81131C41.3643 6.3338 41.168 5.90057 40.6726 5.90057C40.1771 5.90057 39.9995 6.26107 39.9995 6.7955V6.79866Z" fill="white"/>
<path d="M43.1559 5.40439V7.07092C43.1559 7.58321 43.4083 7.73816 43.695 7.73816C43.9817 7.73816 44.2185 7.54842 44.2185 7.07092V5.40439H44.8697V7.03929C44.8697 8.01012 44.3057 8.25045 43.6888 8.25045C43.0718 8.25045 42.5078 8.00063 42.5078 7.04878V5.40439H43.1559Z" fill="white"/>
<path d="M46.1349 5.40439V8.22199H45.493V5.40439H46.1349Z" fill="white"/>
<path d="M46.7767 5.40435H47.8985C48.0781 5.39094 48.2584 5.41717 48.4271 5.48126C48.5957 5.54535 48.7487 5.64576 48.8754 5.7756C49.0022 5.90543 49.0997 6.06159 49.1612 6.23334C49.2228 6.40508 49.247 6.58833 49.2321 6.77046C49.2476 6.95914 49.2236 7.149 49.1616 7.32757C49.0996 7.50613 49.001 7.66934 48.8724 7.80646C48.7437 7.94358 48.5879 8.0515 48.4153 8.12312C48.2426 8.19473 48.0569 8.22842 47.8704 8.22196H46.7767V5.40435ZM47.428 7.6812H47.8455C48.3472 7.6812 48.5653 7.2954 48.5653 6.77046C48.5653 6.33407 48.3596 5.93562 47.8486 5.93562H47.428V7.6812Z" fill="white"/>
<path d="M50.2447 7.60524L50.0484 8.22188H49.4097L50.3445 5.41693H51.1639L52.1237 8.22188H51.4413L51.2325 7.61789L50.2447 7.60524ZM51.0954 7.06765C50.9147 6.50792 50.7838 6.11896 50.7246 5.8723C50.656 6.16007 50.5252 6.59014 50.3787 7.06765H51.0954Z" fill="white"/>
<path d="M52.4571 5.40439H53.1083V6.47957H54.1459V5.40439H54.7972V8.22199H54.1459V7.02032H53.1083V8.22199H52.4571V5.40439Z" fill="white"/>
<path d="M0.227417 55.5549H10.0801V61.8732H0.227417L3.35272 58.7014L0.227417 55.5549Z" fill="white" stroke="#21408F" stroke-width="0.684404" stroke-miterlimit="10"/>
<path d="M10.211 55.4259L5.02289 59.8183L10.211 63.651V55.4259Z" fill="#848AC3"/>
<path d="M65.0268 55.5429H55.1742V61.8612H65.0268L61.8984 58.6862L65.0268 55.5429Z" fill="white" stroke="#21408F" stroke-width="0.684404" stroke-miterlimit="10"/>
<path d="M55.0433 55.4128L60.2314 59.802L55.0433 63.6379V55.4128Z" fill="#848AC3"/>
<path d="M60.1659 69.2354C41.8192 78.0898 23.4725 78.0898 5.12573 69.2354V59.9762C23.3728 70.5446 41.7195 70.6047 60.1659 59.9762V69.2354Z" fill="white" stroke="#21408F" stroke-width="0.684404" stroke-miterlimit="10"/>
<path d="M7.68387 67.0123L7.43148 66.7593C7.46302 66.7013 7.49952 66.6463 7.54054 66.5948C7.42989 66.6009 7.31939 66.5803 7.2181 66.5347C7.11681 66.4891 7.02763 66.4197 6.95785 66.3324C6.52785 65.8991 6.6151 65.3236 7.03887 64.8872C7.46264 64.4508 8.08583 64.3464 8.55634 64.8208C8.7195 64.9541 8.82759 65.1445 8.85931 65.3546C8.89103 65.5648 8.84408 65.7793 8.72772 65.9561L8.37873 65.6082C8.42501 65.5248 8.44039 65.4273 8.42211 65.3334C8.40383 65.2394 8.35308 65.1552 8.27902 65.0959C7.98612 64.7987 7.65583 64.9789 7.40967 65.2319C7.16351 65.4849 7.01083 65.8232 7.29438 66.1078C7.33033 66.1522 7.37552 66.1879 7.42671 66.2125C7.47789 66.237 7.53379 66.2497 7.59039 66.2497C7.647 66.2497 7.7029 66.237 7.75408 66.2125C7.80526 66.1879 7.85045 66.1522 7.88641 66.1078V66.092L7.57481 65.7758L7.86148 65.4849L8.50337 66.1173L7.68387 67.0123Z" fill="#203C8B"/>
<path d="M9.69374 65.8455L10.1019 66.1174L9.16715 67.5689L10.0209 68.1381L9.75294 68.4543L8.53461 67.6416L9.69374 65.8455Z" fill="#203C8B"/>
<path d="M12.1522 68.7068L11.2735 68.2578L11.0554 68.7005L12.0245 69.197L11.7908 69.5385L10.4509 68.8523L11.3857 66.9359L12.7225 67.619L12.5635 67.989L11.6475 67.521L11.4636 67.8941L12.3392 68.34L12.1522 68.7068Z" fill="#203C8B"/>
<path d="M13.7102 70.3457L13.5856 69.5109L12.9219 70.0263L12.4327 69.8303L13.4641 69.0808L13.2272 67.838L13.757 68.0499L13.8754 68.8342L14.4986 68.3503L14.9784 68.5432L13.9969 69.2547L14.2368 70.5608L13.7102 70.3457Z" fill="#203C8B"/>
<path d="M15.1185 70.8607L15.2432 68.6471L15.7417 68.8052C15.6295 69.8709 15.589 70.2061 15.5392 70.4369C15.7417 70.0606 16.1156 69.4566 16.3743 69.0044L16.7887 69.1341C16.7887 69.542 16.7326 70.3389 16.6796 70.769C16.8884 70.3136 17.3028 69.6147 17.443 69.3396L17.8948 69.4819L16.7482 71.3793L16.2652 71.2307C16.3026 70.7468 16.3244 70.108 16.3649 69.7096C16.1748 70.0638 15.8196 70.6583 15.5984 71.0188L15.1185 70.8607Z" fill="#203C8B"/>
<path d="M19.5682 71.1515L18.6147 70.9175L18.4994 71.4013L19.5557 71.6575L19.403 72.0433L17.9448 71.6891L18.4371 69.5988L19.8953 69.9562L19.8019 70.3546L18.8017 70.1143L18.6957 70.519L19.6523 70.7531L19.5682 71.1515Z" fill="#203C8B"/>
<path d="M21.8647 70.7754L21.2415 70.6679L21.3101 70.2599L23.0145 70.5762L22.9428 70.981L22.3196 70.8734L22.0267 72.5811L21.5438 72.4957L21.8647 70.7754Z" fill="#203C8B"/>
<path d="M25.2547 71.9455C25.2482 72.0896 25.2117 72.2308 25.1477 72.3596C25.0837 72.4885 24.9936 72.6022 24.8833 72.6932C24.7729 72.7843 24.6449 72.8506 24.5076 72.888C24.3702 72.9254 24.2267 72.9328 24.0863 72.91C23.4319 72.8214 23.1515 72.2775 23.2387 71.683C23.2465 71.5402 23.2838 71.4006 23.3482 71.2734C23.4127 71.1462 23.5028 71.0342 23.6127 70.9447C23.7227 70.8552 23.85 70.7902 23.9863 70.7539C24.1227 70.7177 24.265 70.711 24.4041 70.7343C25.0117 70.8039 25.3389 71.2909 25.2547 71.9455ZM23.7373 71.7399C23.6843 72.1447 23.8121 72.4609 24.1579 72.5084C24.5038 72.5558 24.7063 72.2459 24.7531 71.8759C24.7998 71.5059 24.697 71.1644 24.3293 71.117C23.9616 71.0695 23.7902 71.3352 23.7373 71.7399Z" fill="#203C8B"/>
<path d="M26.8439 73.1883L26.4856 72.4167L25.987 73.0997L25.4729 73.0491L26.2581 72.0372L25.691 70.9114L26.255 70.9652L26.5853 71.6862L27.0558 71.0537L27.5668 71.1011L26.8128 72.0498L27.4204 73.2452L26.8439 73.1883Z" fill="#203C8B"/>
<path d="M29.8415 72.3124C29.8465 72.457 29.8212 72.601 29.7672 72.7348C29.7132 72.8687 29.6318 72.9894 29.5284 73.089C29.425 73.1885 29.302 73.2646 29.1674 73.3123C29.0328 73.36 28.8898 73.3781 28.7478 73.3655C28.0873 73.3275 27.7757 72.8184 27.8131 72.2049C27.809 72.0613 27.8349 71.9184 27.8892 71.7857C27.9434 71.653 28.0247 71.5334 28.1277 71.4349C28.2307 71.3363 28.3531 71.261 28.4868 71.2138C28.6206 71.1667 28.7626 71.1488 28.9036 71.1614C29.0428 71.1659 29.1793 71.2004 29.3043 71.2626C29.4293 71.3248 29.5398 71.4133 29.6285 71.5222C29.7172 71.631 29.782 71.7578 29.8188 71.894C29.8555 72.0303 29.8633 72.1729 29.8415 72.3124ZM28.3147 72.2176C28.2898 72.6255 28.4394 72.9322 28.7884 72.9544C29.1373 72.9765 29.315 72.654 29.3368 72.2871C29.3586 71.9203 29.2308 71.5851 28.86 71.563C28.4892 71.5408 28.3552 71.8096 28.3147 72.2176Z" fill="#203C8B"/>
<path d="M32.0383 73.4443L31.3248 71.2939H31.8482L32.138 72.2679C32.2253 72.5652 32.2876 72.8055 32.3343 73.0332C32.3941 72.7776 32.4669 72.5253 32.5525 72.2774L32.864 71.3002H33.3626L32.6023 73.4411L32.0383 73.4443Z" fill="#203C8B"/>
<path d="M34.3939 71.2813L34.4375 73.4285H33.9483L33.9078 71.2813H34.3939Z" fill="#203C8B"/>
<path d="M35.7463 73.3839L34.9236 71.2747L35.4471 71.2494L35.7868 72.1981C35.8896 72.4922 35.9644 72.7293 36.0236 72.9507C36.0685 72.6927 36.1268 72.4373 36.1981 72.1854L36.4629 71.1925L36.9615 71.1672L36.3165 73.3492L35.7463 73.3839Z" fill="#203C8B"/>
<path d="M39.021 72.2521L38.0395 72.3343L38.08 72.8308L39.1613 72.7391L39.1395 73.1533L37.6407 73.2798L37.4693 71.1389L38.9618 71.0125L38.9961 71.4235L37.9741 71.5089L38.0084 71.9232L38.9868 71.841L39.021 72.2521Z" fill="#203C8B"/>
<path d="M39.825 73.0904L39.5726 70.959L40.1677 70.8862C40.4793 71.329 41.0059 72.0942 41.1243 72.3156C41.0745 72.1069 41.0308 71.7306 40.9903 71.3669L40.9187 70.7819L41.358 70.7281L41.6104 72.8595L41.0433 72.9291C40.7847 72.5464 40.1771 71.6642 40.0524 71.4143C40.0898 71.5851 40.149 72.0468 40.1926 72.4231L40.2643 73.0239L39.825 73.0904Z" fill="#203C8B"/>
<path d="M42.7509 72.2304L42.6792 72.7111L42.2056 72.7901L42.5546 70.5576L43.159 70.4564L44.2185 72.4581L43.7137 72.5403L43.4831 72.1102L42.7509 72.2304ZM43.3117 71.7213C43.1092 71.3197 42.9752 71.054 42.8942 70.8643C42.8942 71.0888 42.8319 71.4303 42.782 71.813L43.3117 71.7213Z" fill="#203C8B"/>
<path d="M47.3625 70.9586C47.2815 70.6108 47.1942 70.2091 47.1444 69.9656C47.1444 70.4337 47.1444 71.1262 47.1007 71.8219L46.6988 71.9199C46.4215 71.3729 46.0756 70.674 45.8793 70.2629H45.8637C45.9385 70.5032 46.0476 70.9238 46.1317 71.2812L46.3031 72.0085L45.8699 72.1128L45.3807 70.0257L46.0881 69.855C46.3498 70.342 46.6552 70.9554 46.7891 71.2622C46.7705 70.946 46.8047 70.2218 46.839 69.681L47.5183 69.5166L48.0075 71.6037L47.5526 71.7144L47.3625 70.9586Z" fill="#203C8B"/>
<path d="M48.7428 69.1529L49.338 71.2147L48.8675 71.3538L48.2723 69.292L48.7428 69.1529Z" fill="#203C8B"/>
<path d="M49.5001 68.9379L50.3819 68.6217C50.868 68.4478 51.1359 68.647 51.2232 68.9095C51.259 68.9961 51.2695 69.0913 51.2534 69.1838C51.2374 69.2763 51.1956 69.3622 51.1328 69.4313C51.2344 69.4375 51.3318 69.4747 51.4124 69.5378C51.493 69.601 51.553 69.6872 51.5846 69.7854C51.6129 69.8732 51.6226 69.9661 51.6134 70.0579C51.6041 70.1498 51.5759 70.2387 51.5307 70.3188C51.4855 70.399 51.4242 70.4686 51.3509 70.5233C51.2775 70.5779 51.1937 70.6163 51.1048 70.6361L50.1949 70.9523L49.5001 68.9379ZM50.6031 69.4344C50.7869 69.368 50.8337 69.2542 50.787 69.1182C50.7402 68.9822 50.6125 68.9474 50.4754 69.0012L50.0921 69.1372L50.2354 69.5609L50.6031 69.4344ZM50.5221 70.44L50.8804 70.3135C51.1079 70.2345 51.164 70.108 51.1048 69.9404C51.0456 69.7728 50.9272 69.7285 50.7153 69.8044L50.3476 69.9341L50.5221 70.44Z" fill="#203C8B"/>
<path d="M52.1299 67.9265L52.94 69.9093L52.4882 70.099L51.678 68.1163L52.1299 67.9265Z" fill="#203C8B"/>
<path d="M53.4137 67.7902L52.8591 68.0684L52.6783 67.7016L54.2363 66.9205L54.417 67.2905L53.8655 67.5688L54.6258 69.1215L54.1896 69.3428L53.4137 67.7902Z" fill="#203C8B"/>
<path d="M56.8131 66.5098C56.9019 66.6225 56.9661 66.7531 57.0015 66.8929C57.0369 67.0326 57.0427 67.1784 57.0186 67.3207C56.9945 67.4629 56.9409 67.5983 56.8614 67.718C56.782 67.8377 56.6784 67.9389 56.5576 68.015C56.0061 68.385 55.4577 68.1668 55.1212 67.6545C55.0336 67.5414 54.9704 67.4109 54.9358 67.2714C54.9012 67.1319 54.8959 66.9866 54.9203 66.8449C54.9447 66.7032 54.9983 66.5684 55.0774 66.449C55.1566 66.3297 55.2596 66.2287 55.3798 66.1524C55.4943 66.0712 55.6246 66.0157 55.762 65.9897C55.8993 65.9637 56.0405 65.9677 56.1762 66.0015C56.3119 66.0354 56.4389 66.0982 56.5488 66.1858C56.6586 66.2735 56.7487 66.3839 56.8131 66.5098ZM55.5356 67.3636C55.7599 67.7051 56.0591 67.8601 56.3489 67.664C56.6386 67.4679 56.595 67.1011 56.3956 66.7975C56.1962 66.494 55.8939 66.2979 55.5854 66.5066C55.277 66.7153 55.3144 67.0221 55.5356 67.3573V67.3636Z" fill="#203C8B"/>
<path d="M58.206 66.7463L56.648 65.2789L57.0593 64.8362C57.5734 64.9754 58.4677 65.2125 58.6983 65.3074C58.53 65.1809 58.2558 64.9216 58.0034 64.675L57.5797 64.2702L57.8913 63.9539L59.4492 65.4213L59.0598 65.8418C58.6204 65.7217 57.5859 65.4307 57.3398 65.3295C57.4769 65.4371 57.8103 65.747 58.0845 66.0094L58.5207 66.4237L58.206 66.7463Z" fill="#203C8B"/>
<path d="M29.1342 23.7172L26.0182 22.253C26.039 22.0776 26.039 21.9003 26.0182 21.7249L29.1342 20.2386L25.7783 20.9154C25.6917 20.7599 25.5871 20.6155 25.4667 20.4853L27.1306 17.4495L24.7999 19.9793C24.6411 19.9102 24.4748 19.8603 24.3044 19.8307L23.8962 16.3806L23.4849 19.8307C23.314 19.8654 23.1476 19.9206 22.9895 19.9951L20.6588 17.4653L22.3227 20.5011C22.2023 20.6313 22.0977 20.7757 22.0111 20.9312L18.6552 20.2386L21.7712 21.7028C21.7462 21.8779 21.7462 22.0558 21.7712 22.2309L18.6552 23.7172L22.0142 23.0468C22.1008 23.2022 22.2054 23.3466 22.3258 23.4768L20.6619 26.5126L22.9926 23.967C23.1508 24.0416 23.3171 24.0968 23.4881 24.1314L23.8994 27.5783L24.3044 24.1156C24.4754 24.0809 24.6417 24.0257 24.7999 23.9512L27.1306 26.4968L25.4667 23.461C25.5871 23.3308 25.6917 23.1864 25.7783 23.0309L29.1342 23.7172Z" fill="white" stroke="#21408F" stroke-width="0.684404" stroke-miterlimit="10"/>
</svg>
