<svg width="32" height="32" viewBox="0 0 32 32" fill="none" xmlns="http://www.w3.org/2000/svg">
<g clip-path="url(#clip0_3401_12377)">
<path d="M18.5024 24.208C17.4233 24.208 16.3443 23.9778 15.3461 23.5177H4.24219V21.6523H12.8497C12.1455 20.8515 11.6403 19.9358 11.3346 18.9699H4.24219V17.1045H10.9942C10.9446 16.2018 11.0563 15.292 11.3295 14.4221H4.24219V12.5567H12.2135C12.49 12.1361 12.8128 11.7373 13.1824 11.3678C13.818 10.7322 14.5401 10.2345 15.3111 9.87431H4.42991V8.00888H19.2136V9.2012C20.6191 9.33352 21.9939 9.85932 23.1582 10.7778V0H6.16351V5.85401H0.485352V31.7465H23.1583V25.762L21.1325 23.7362C20.2862 24.0506 19.3943 24.208 18.5024 24.208ZM8.72406 3.20865H19.0719V5.07408H8.72406V3.20865ZM19.2136 28.0655H4.42991V26.2001H19.2136V28.0655H19.2136Z" fill="#008349"/>
<path d="M4.29833 0.969391L1.39355 3.98858H4.29833V0.969391Z" fill="#008349"/>
<path d="M24.6376 21.043C24.397 21.3815 24.1257 21.7047 23.8224 22.008C23.5192 22.3112 23.1959 22.5826 22.8574 22.8232L29.1121 29.0778C29.6029 29.5686 30.4014 29.5686 30.8922 29.0778C31.383 28.587 31.383 27.7885 30.8922 27.2976L24.6376 21.043Z" fill="#008349"/>
<path d="M22.5033 20.6889C24.7094 18.4828 24.7094 14.893 22.5033 12.6869C21.4002 11.5839 19.9513 11.0323 18.5023 11.0323C17.0533 11.0323 15.6044 11.5839 14.5013 12.6869C12.2952 14.893 12.2952 18.4828 14.5013 20.6889C15.57 21.7576 16.9909 22.3461 18.5023 22.3461C20.0137 22.3461 21.4345 21.7575 22.5033 20.6889Z" fill="#008349"/>
</g>
<defs>
<clipPath id="clip0_3401_12377">
<rect width="31.7465" height="31.7465" fill="white"/>
</clipPath>
</defs>
</svg>
