<svg width="9" height="9" viewBox="0 0 9 9" fill="none" xmlns="http://www.w3.org/2000/svg">
<path d="M8.78387 1.26341C8.69587 1.02494 8.55547 0.809094 8.37305 0.631922C8.19587 0.449497 7.98017 0.309102 7.74156 0.2211C7.54804 0.145941 7.25733 0.056479 6.72188 0.0321069C6.14264 0.00569169 5.96897 0 4.50256 0C3.036 0 2.86233 0.00554575 2.28324 0.031961C1.74778 0.056479 1.45692 0.145941 1.26355 0.2211C1.02494 0.309102 0.809094 0.449497 0.632068 0.631922C0.449643 0.809094 0.309248 1.02479 0.2211 1.26341C0.145941 1.45692 0.056479 1.74778 0.0321069 2.28324C0.00569169 2.86233 0 3.036 0 4.50256C0 5.96897 0.00569169 6.14264 0.0321069 6.72188C0.056479 7.25733 0.145941 7.54804 0.2211 7.74156C0.309248 7.98017 0.449497 8.19587 0.631922 8.37305C0.809094 8.55547 1.02479 8.69587 1.26341 8.78387C1.45692 8.85917 1.74778 8.94864 2.28324 8.97301C2.86233 8.99942 3.03586 9.00497 4.50241 9.00497C5.96911 9.00497 6.14278 8.99942 6.72173 8.97301C7.25718 8.94864 7.54804 8.85917 7.74156 8.78387C8.22054 8.59911 8.59911 8.22054 8.78387 7.74156C8.85903 7.54804 8.94849 7.25733 8.97301 6.72188C8.99942 6.14264 9.00497 5.96897 9.00497 4.50256C9.00497 3.036 8.99942 2.86233 8.97301 2.28324C8.94864 1.74778 8.85917 1.45692 8.78387 1.26341ZM4.50256 7.32257C2.94493 7.32257 1.68226 6.06003 1.68226 4.50241C1.68226 2.94479 2.94493 1.68226 4.50256 1.68226C6.06003 1.68226 7.32271 2.94479 7.32271 4.50241C7.32271 6.06003 6.06003 7.32257 4.50256 7.32257ZM7.43421 2.22983C7.07023 2.22983 6.77514 1.93473 6.77514 1.57076C6.77514 1.20678 7.07023 0.911691 7.43421 0.911691C7.79819 0.911691 8.09328 1.20678 8.09328 1.57076C8.09313 1.93473 7.79819 2.22983 7.43421 2.22983Z" fill="white"/>
</svg>
