<svg width="30" height="21" viewBox="0 0 30 21" fill="none" xmlns="http://www.w3.org/2000/svg">
<path d="M21.5632 5.69299H4.33711L7.86147 2.16862C8.3576 1.6725 8.3576 0.868265 7.86147 0.372144C7.36521 -0.124119 6.56111 -0.123977 6.06485 0.372144L0.372091 6.06519C-0.12403 6.56131 -0.12403 7.36555 0.372091 7.86167L6.06485 13.5544C6.31298 13.8026 6.63804 13.9265 6.96309 13.9265C7.28815 13.9265 7.6132 13.8024 7.86133 13.5544C8.35745 13.0583 8.35745 12.2541 7.86133 11.7579L4.33697 8.23358H21.563C24.3129 8.23358 26.5502 10.4709 26.5502 13.2208C26.5502 15.9707 24.3129 18.2079 21.563 18.2079H11.0842C10.3826 18.2079 9.81392 18.7766 9.81392 19.4782C9.81392 20.1799 10.3826 20.7485 11.0842 20.7485H21.563C25.7138 20.7485 29.0908 17.3715 29.0908 13.2208C29.0908 9.07 25.7139 5.69299 21.5632 5.69299Z" fill="white"/>
</svg>
