<svg width="13" height="13" viewBox="0 0 13 13" fill="none" xmlns="http://www.w3.org/2000/svg">
<path d="M12.2678 11.5855L9.23934 8.55714C9.9921 7.65192 10.4456 6.48952 10.4456 5.22297C10.4456 2.34301 8.10267 0 5.22284 0C2.34295 0 0 2.34301 0 5.22297C0 8.10273 2.34295 10.4455 5.22284 10.4455C6.48933 10.4455 7.65179 9.9921 8.55701 9.23934L11.5855 12.2678C11.6797 12.362 11.8032 12.4091 11.9266 12.4091C12.0501 12.4091 12.1736 12.362 12.2678 12.2678C12.4562 12.0793 12.4562 11.7739 12.2678 11.5855ZM0.964917 5.22297C0.964917 2.87507 2.875 0.964917 5.22284 0.964917C7.57061 0.964917 9.48063 2.87507 9.48063 5.22297C9.48063 7.57067 7.57061 9.48063 5.22284 9.48063C2.875 9.48063 0.964917 7.57067 0.964917 5.22297Z" fill="white"/>
</svg>
