<svg width="66" height="66" viewBox="0 0 66 66" fill="none" xmlns="http://www.w3.org/2000/svg">
<g clip-path="url(#clip0_3401_16176)">
<path d="M25.3774 25.1568H35.3425C35.8765 25.1568 36.3095 24.7238 36.3095 24.1897C36.3095 23.6557 35.8765 23.2227 35.3425 23.2227H25.3774C24.8433 23.2227 24.4103 23.6557 24.4103 24.1897C24.4103 24.7238 24.8433 25.1568 25.3774 25.1568Z" fill="white"/>
<path d="M25.3774 33.2469H35.3425C35.8765 33.2469 36.3095 32.8139 36.3095 32.2798C36.3095 31.7457 35.8765 31.3127 35.3425 31.3127H25.3774C24.8433 31.3127 24.4103 31.7457 24.4103 32.2798C24.4103 32.8139 24.8433 33.2469 25.3774 33.2469Z" fill="white"/>
<path d="M36.3097 40.3698C36.3097 39.8357 35.8767 39.4027 35.3426 39.4027H25.3775C24.8435 39.4027 24.4105 39.8357 24.4105 40.3698C24.4105 40.9038 24.8435 41.3368 25.3775 41.3368H35.3426C35.8767 41.3368 36.3097 40.9038 36.3097 40.3698Z" fill="white"/>
<path d="M58.2526 15.8073C57.5992 15.3136 56.6833 15.5922 55.9586 15.8898C53.5074 16.8967 49.1238 20.1147 46.5526 24.3261H42.0501V18.2076C42.0501 17.2989 41.3108 16.5595 40.4022 16.5595H38.586V12.9099C38.586 12.0012 37.8467 11.2618 36.9381 11.2618H31.3272V8.9142C31.3272 8.38014 30.8942 7.94714 30.3601 7.94714C29.8261 7.94714 29.3931 8.38014 29.3931 8.9142V11.2618H23.7819C22.8733 11.2618 22.1338 12.0011 22.1338 12.9099V16.5596H20.3182C19.4095 16.5596 18.6701 17.2989 18.6701 18.2077V24.3265H10.003C9.01918 24.3265 8.2188 25.1269 8.2188 26.1107V28.4759C8.2188 29.0099 8.6518 29.4429 9.18586 29.4429C9.71992 29.4429 10.1529 29.0099 10.1529 28.4759V26.2607H18.6703V46.065H10.1529V32.9891C10.1529 32.4551 9.71992 32.0221 9.18586 32.0221C8.6518 32.0221 8.2188 32.4551 8.2188 32.9891V46.065H5.86459C4.9558 46.065 4.13235 46.5299 3.66197 47.3088C3.19417 48.0833 3.16568 49.0226 3.58565 49.8214C8.83369 59.8007 19.0927 65.9999 30.3594 65.9999C36.6563 65.9999 42.6916 64.0832 47.8126 60.4568C48.2486 60.1482 48.3517 59.5446 48.043 59.1087C47.7344 58.6728 47.1307 58.5695 46.6947 58.8784C44.0734 60.7346 41.1955 62.1108 38.1617 62.978C40.4129 61.1279 42.4147 58.4852 44.0278 55.2119H50.9191C50.6377 55.5092 50.3501 55.8014 50.0552 56.0873C49.6717 56.4591 49.6623 57.0714 50.0341 57.4549C50.4058 57.8384 51.0181 57.8478 51.4016 57.476C53.7123 55.2359 55.641 52.6605 57.1341 49.8213C57.5542 49.0225 57.5257 48.0833 57.0579 47.3087C56.5875 46.5298 55.7639 46.0648 54.8551 46.0648H52.5013V39.8797C52.7483 39.8998 52.9959 39.9116 53.2441 39.9115C54.186 39.9115 55.1309 39.7665 56.0407 39.4755C60.109 38.1722 62.7686 34.9901 63.5294 30.5158C64.4658 25.0097 62.2465 18.824 58.2526 15.8073ZM45.541 26.2605C45.1017 27.2689 44.7815 28.3182 44.625 29.3952C44.2696 31.8375 44.7089 34.1289 45.8617 35.9618C44.7292 36.7057 43.464 37.3321 42.0501 37.8497V26.2605H45.541ZM47.832 36.9411C51.351 34.1698 53.5462 30.4557 54.9765 26.1519C55.123 25.7107 55.6015 25.471 56.0426 25.6175C56.4839 25.7642 56.7236 26.2424 56.5771 26.6837C55.2144 30.7842 53.3843 33.9685 50.9823 36.4188C48.6767 38.7708 45.8156 40.4702 42.2355 41.614C41.7848 41.7585 41.3146 41.5023 41.1756 41.0673C41.107 40.8528 41.1261 40.6244 41.2294 40.4242C41.3326 40.224 41.5075 40.0759 41.7222 40.0074C43.776 39.3513 46.1444 38.2701 47.832 36.9411ZM29.3923 64.0122C26.6082 63.7091 23.9187 62.0863 21.5708 59.2792C20.5792 58.0937 19.6733 56.7284 18.8634 55.212H29.3923V64.0122ZM17.9212 53.2778C17.1962 51.6496 16.5722 49.882 16.0611 47.9991H29.3923V53.2778H17.9212ZM31.3265 47.9992H44.6589C44.1478 49.882 43.5238 51.6497 42.7988 53.2779H31.3265V47.9992ZM24.0682 13.1961H36.6518V16.5596H24.0682V13.1961ZM20.6046 18.4939H40.1159V38.7529C39.8721 38.9737 39.6655 39.2368 39.5103 39.5379C39.1702 40.1973 39.1073 40.9496 39.3332 41.6564C39.485 42.1317 39.7601 42.5455 40.1159 42.8673V46.0651H20.6046V18.4939ZM5.31764 48.3087C5.37384 48.2157 5.53974 47.9991 5.86472 47.9991H14.0588C14.5446 49.8782 15.1348 51.6431 15.8152 53.2778H8.12186C7.06238 51.9302 6.11479 50.4749 5.29779 48.9212C5.1507 48.6416 5.26259 48.3997 5.31764 48.3087ZM9.78785 55.212H16.6921C18.3043 58.4836 20.3048 61.1252 22.5546 62.9752C17.6792 61.5823 13.2708 58.9029 9.78785 55.212ZM31.3265 64.0123V55.212H41.8566C39.625 59.3904 36.0378 63.5001 31.3265 64.0123ZM55.4022 48.3087C55.4571 48.3997 55.5692 48.6416 55.4221 48.9212C54.6124 50.4607 53.6651 51.9168 52.5914 53.2778H44.9047C45.5852 51.6433 46.1754 49.8782 46.6612 47.9991H54.8553C55.1803 47.9992 55.3461 48.2157 55.4022 48.3087ZM50.5672 46.065H42.0501V43.5861C42.3123 43.5794 42.5721 43.5373 42.8243 43.4566C45.7956 42.5072 48.3175 41.1959 50.4721 39.4781C50.5038 39.4883 50.5355 39.4981 50.5672 39.5079V46.065ZM61.6226 30.1915C61.2556 32.35 59.9658 36.187 55.4511 37.6334C54.4044 37.9681 53.3003 38.0566 52.2302 37.9046C52.2743 37.8604 52.3197 37.8176 52.3635 37.773C54.9763 35.1077 56.955 31.6799 58.4126 27.2937C58.8955 25.8402 58.1059 24.2649 56.6524 23.7819C55.1989 23.2995 53.6237 24.0889 53.141 25.5419C51.956 29.1075 50.4041 31.8363 48.3966 33.8842C48.0842 34.2029 47.7569 34.5058 47.4169 34.7961C46.5723 33.3738 46.2599 31.5914 46.539 29.6736C47.0962 25.8406 50.0734 22.6181 51.7985 21.0382C54.3547 18.6973 56.5862 17.6192 57.2625 17.4871C60.5482 20.1064 62.4173 25.5178 61.6226 30.1915Z" fill="white"/>
<path d="M4.52009 36.4429C5.03391 36.2968 5.33182 35.7618 5.18577 35.2482C5.1186 35.0117 5.05351 34.7695 4.99228 34.5281C4.86105 34.0104 4.33524 33.6969 3.81717 33.8283C3.29948 33.9595 2.98611 34.4855 3.11734 35.0034C3.18308 35.2627 3.25307 35.5231 3.32526 35.7772C3.47196 36.2928 4.00859 36.5887 4.52009 36.4429Z" fill="white"/>
<path d="M34.4049 2.22303C35.5489 2.4004 35.9071 2.52492 36.1198 2.52492C36.5653 2.52492 36.9662 2.21516 37.0642 1.76206C37.1771 1.23999 36.8454 0.725264 36.3233 0.612471C35.789 0.496971 35.2434 0.39578 34.7016 0.311733C34.1737 0.230393 33.6796 0.59146 33.5976 1.1192C33.5156 1.64694 33.8772 2.14117 34.4049 2.22303Z" fill="white"/>
<path d="M27.674 2.04353C27.8227 2.04353 28.2805 1.97392 29.3009 1.93345C29.8346 1.91231 30.25 1.46242 30.2289 0.928751C30.2078 0.395079 29.7572 -0.0201284 29.2242 0.000754421C28.677 0.0225396 28.124 0.0605669 27.5805 0.113934C27.049 0.166141 26.6604 0.639356 26.7126 1.17097C26.7617 1.67035 27.1825 2.04353 27.674 2.04353Z" fill="white"/>
<path d="M46.4778 7.46388C46.8787 7.77777 47.276 8.10802 47.6587 8.44537C48.061 8.79999 48.6719 8.75849 49.0237 8.35952C49.3769 7.95888 49.3385 7.34774 48.9378 6.99453C48.5271 6.63243 48.1007 6.27807 47.6702 5.94098C47.2498 5.61188 46.6419 5.68562 46.3125 6.10624C45.9832 6.52673 46.0572 7.13452 46.4778 7.46388Z" fill="white"/>
<path d="M40.7773 4.06791C41.2442 4.27081 41.7116 4.49047 42.1668 4.72095C42.6451 4.96317 43.2263 4.76955 43.4664 4.29505C43.7077 3.81848 43.5169 3.2366 43.0404 2.99541C42.5517 2.74791 42.0495 2.51189 41.548 2.29403C41.0583 2.08134 40.4885 2.30576 40.2756 2.79561C40.0628 3.28532 40.2873 3.85496 40.7773 4.06791Z" fill="white"/>
<path d="M20.971 3.58081C21.2967 3.58081 21.323 3.46815 22.7601 3.0327C23.2712 2.87776 23.5601 2.3379 23.4052 1.82666C23.2504 1.31541 22.7101 1.02654 22.1992 1.18148C21.6757 1.34004 21.1498 1.51651 20.6362 1.706C20.135 1.89085 19.8788 2.44695 20.0635 2.94801C20.2076 3.33886 20.5776 3.58081 20.971 3.58081Z" fill="white"/>
<path d="M3.57341 23.613C4.09612 23.7193 4.60711 23.3813 4.71333 22.8573C4.81439 22.3581 4.93182 21.8554 5.06215 21.363C5.19879 20.8466 4.89096 20.3172 4.37469 20.1805C3.85803 20.0441 3.32887 20.3517 3.19223 20.868C3.05224 21.397 2.92617 21.9371 2.8175 22.4733C2.71154 22.9966 3.04992 23.5069 3.57341 23.613Z" fill="white"/>
<path d="M4.22877 29.475C4.18571 28.6561 4.19267 28.0205 4.19241 27.9393C4.19074 27.4051 3.7647 26.9699 3.23052 26.967C3.22871 26.967 3.22716 26.967 3.22536 26.967C2.69362 26.967 2.25663 27.3968 2.25818 27.9291C2.25818 27.9488 2.24838 28.648 2.29711 29.5764C2.32418 30.0925 2.75124 30.4928 3.2621 30.4928C3.81897 30.4928 4.25777 30.0265 4.22877 29.475Z" fill="white"/>
<path d="M5.55469 17.0211C6.03126 17.255 6.61237 17.0607 6.84878 16.5783C7.07282 16.121 7.31401 15.6638 7.56524 15.2193C7.82808 14.7543 7.66424 14.1643 7.19941 13.9014C6.73444 13.6386 6.14444 13.8022 5.88147 14.2672C5.61154 14.7447 5.35257 15.2358 5.1119 15.7271C4.87678 16.2067 5.07503 16.786 5.55469 17.0211Z" fill="white"/>
<path d="M14.8742 6.76275C15.328 6.76275 15.3426 6.5877 16.7099 5.75006C17.1653 5.47098 17.3082 4.87557 17.0292 4.42014C16.7501 3.96471 16.1548 3.82163 15.6992 4.10084C15.2331 4.38649 14.7693 4.68968 14.3208 5.00189C13.8824 5.30701 13.7745 5.90978 14.0797 6.34819C14.2677 6.61812 14.5685 6.76275 14.8742 6.76275Z" fill="white"/>
<path d="M9.13803 11.1413C9.54305 11.4894 10.1537 11.4431 10.5019 11.038C10.8342 10.6511 11.1822 10.2692 11.5359 9.90294C11.9071 9.5188 11.8964 8.90649 11.5122 8.5355C11.1281 8.16438 10.5158 8.17521 10.1448 8.55922C9.76503 8.95238 9.39159 9.36231 9.03477 9.77764C8.6866 10.1827 8.73288 10.7933 9.13803 11.1413Z" fill="white"/>
<path d="M51.6016 12.7945C51.9149 13.2291 52.5199 13.3247 52.9516 13.0134C53.3848 12.701 53.4828 12.0966 53.1705 11.6633C53.0135 11.4456 52.8527 11.2292 52.6927 11.0202C52.3682 10.596 51.761 10.5154 51.3369 10.8402C50.9128 11.1648 50.8322 11.7719 51.157 12.1961C51.3057 12.3903 51.4552 12.5917 51.6016 12.7945Z" fill="white"/>
</g>
<defs>
<clipPath id="clip0_3401_16176">
<rect width="66" height="66" fill="white"/>
</clipPath>
</defs>
</svg>
