<svg width="62" height="66" viewBox="0 0 62 66" fill="none" xmlns="http://www.w3.org/2000/svg">
<path d="M23.12 25.1568H33.0851C33.6192 25.1568 34.0522 24.7238 34.0522 24.1897C34.0522 23.6557 33.6192 23.2227 33.0851 23.2227H23.12C22.586 23.2227 22.153 23.6557 22.153 24.1897C22.153 24.7238 22.586 25.1568 23.12 25.1568Z" fill="white"/>
<path d="M23.12 33.2469H33.0851C33.6192 33.2469 34.0522 32.8139 34.0522 32.2798C34.0522 31.7457 33.6192 31.3127 33.0851 31.3127H23.12C22.586 31.3127 22.153 31.7457 22.153 32.2798C22.153 32.8139 22.586 33.2469 23.12 33.2469Z" fill="white"/>
<path d="M34.0523 40.3698C34.0523 39.8357 33.6193 39.4027 33.0852 39.4027H23.1201C22.5861 39.4027 22.1531 39.8357 22.1531 40.3698C22.1531 40.9038 22.5861 41.3368 23.1201 41.3368H33.0852C33.6193 41.3368 34.0523 40.9038 34.0523 40.3698Z" fill="white"/>
<path d="M55.9952 15.8073C55.3418 15.3136 54.4259 15.5922 53.7012 15.8898C51.25 16.8967 46.8665 20.1147 44.2952 24.3261H39.7927V18.2076C39.7927 17.2989 39.0535 16.5595 38.1448 16.5595H36.3286V12.9099C36.3286 12.0012 35.5894 11.2618 34.6807 11.2618H29.0698V8.9142C29.0698 8.38014 28.6368 7.94714 28.1027 7.94714C27.5687 7.94714 27.1357 8.38014 27.1357 8.9142V11.2618H21.5245C20.6159 11.2618 19.8765 12.0011 19.8765 12.9099V16.5596H18.0608C17.1522 16.5596 16.4128 17.2989 16.4128 18.2077V24.3265H7.74561C6.7618 24.3265 5.96142 25.1269 5.96142 26.1107V28.4759C5.96142 29.0099 6.39441 29.4429 6.92847 29.4429C7.46253 29.4429 7.89553 29.0099 7.89553 28.4759V26.2607H16.4129V46.065H7.89553V32.9891C7.89553 32.4551 7.46253 32.0221 6.92847 32.0221C6.39441 32.0221 5.96142 32.4551 5.96142 32.9891V46.065H3.6072C2.69841 46.065 1.87496 46.5299 1.40458 47.3088C0.93678 48.0833 0.908292 49.0226 1.32827 49.8214C6.5763 59.8007 16.8353 65.9999 28.102 65.9999C34.3989 65.9999 40.4342 64.0832 45.5552 60.4568C45.9912 60.1482 46.0943 59.5446 45.7856 59.1087C45.477 58.6728 44.8733 58.5695 44.4374 58.8784C41.816 60.7346 38.9381 62.1108 35.9043 62.978C38.1555 61.1279 40.1573 58.4852 41.7704 55.2119H48.6617C48.3803 55.5092 48.0928 55.8014 47.7978 56.0873C47.4143 56.4591 47.4049 57.0714 47.7767 57.4549C48.1484 57.8384 48.7607 57.8478 49.1442 57.476C51.4549 55.2359 53.3836 52.6605 54.8767 49.8213C55.2968 49.0225 55.2683 48.0833 54.8005 47.3087C54.3301 46.5298 53.5066 46.0648 52.5978 46.0648H50.2439V39.8797C50.4909 39.8998 50.7386 39.9116 50.9867 39.9115C51.9286 39.9115 52.8735 39.7665 53.7833 39.4755C57.8516 38.1722 60.5112 34.9901 61.272 30.5158C62.2084 25.0097 59.9891 18.824 55.9952 15.8073ZM43.2836 26.2605C42.8443 27.2689 42.5241 28.3182 42.3676 29.3952C42.0122 31.8375 42.4516 34.1289 43.6044 35.9618C42.4718 36.7057 41.2066 37.3321 39.7927 37.8497V26.2605H43.2836ZM45.5746 36.9411C49.0936 34.1698 51.2889 30.4557 52.7191 26.1519C52.8656 25.7107 53.3441 25.471 53.7852 25.6175C54.2265 25.7642 54.4663 26.2424 54.3197 26.6837C52.957 30.7842 51.1269 33.9685 48.7249 36.4188C46.4193 38.7708 43.5582 40.4702 39.9781 41.614C39.5274 41.7585 39.0572 41.5023 38.9182 41.0673C38.8497 40.8528 38.8687 40.6244 38.972 40.4242C39.0752 40.224 39.2502 40.0759 39.4648 40.0074C41.5187 39.3513 43.8871 38.2701 45.5746 36.9411ZM27.1349 64.0122C24.3508 63.7091 21.6613 62.0863 19.3134 59.2792C18.3218 58.0937 17.4159 56.7284 16.606 55.212H27.1349V64.0122ZM15.6638 53.2778C14.9388 51.6496 14.3148 49.882 13.8037 47.9991H27.1349V53.2778H15.6638ZM29.0692 47.9992H42.4015C41.8904 49.882 41.2664 51.6497 40.5414 53.2779H29.0692V47.9992ZM21.8108 13.1961H34.3944V16.5596H21.8108V13.1961ZM18.3472 18.4939H37.8585V38.7529C37.6147 38.9737 37.4081 39.2368 37.2529 39.5379C36.9128 40.1973 36.8499 40.9496 37.0758 41.6564C37.2276 42.1317 37.5027 42.5455 37.8585 42.8673V46.0651H18.3472V18.4939ZM3.06025 48.3087C3.11646 48.2157 3.28236 47.9991 3.60733 47.9991H11.8014C12.2872 49.8782 12.8774 51.6431 13.5579 53.2778H5.86448C4.805 51.9302 3.85741 50.4749 3.0404 48.9212C2.89332 48.6416 3.00521 48.3997 3.06025 48.3087ZM7.53046 55.212H14.4347C16.0469 58.4836 18.0474 61.1252 20.2972 62.9752C15.4218 61.5823 11.0134 58.9029 7.53046 55.212ZM29.0692 64.0123V55.212H39.5992C37.3676 59.3904 33.7804 63.5001 29.0692 64.0123ZM53.1448 48.3087C53.1998 48.3997 53.3118 48.6416 53.1647 48.9212C52.355 50.4607 51.4077 51.9168 50.334 53.2778H42.6474C43.3279 51.6433 43.918 49.8782 44.4038 47.9991H52.5979C52.9229 47.9992 53.0888 48.2157 53.1448 48.3087ZM48.3098 46.065H39.7927V43.5861C40.0549 43.5794 40.3147 43.5373 40.5669 43.4566C43.5382 42.5072 46.0602 41.1959 48.2147 39.4781C48.2464 39.4883 48.2781 39.4981 48.3098 39.5079V46.065ZM59.3652 30.1915C58.9982 32.35 57.7084 36.187 53.1937 37.6334C52.147 37.9681 51.0429 38.0566 49.9728 37.9046C50.0169 37.8604 50.0623 37.8176 50.1061 37.773C52.7189 35.1077 54.6976 31.6799 56.1552 27.2937C56.6381 25.8402 55.8485 24.2649 54.395 23.7819C52.9416 23.2995 51.3663 24.0889 50.8836 25.5419C49.6987 29.1075 48.1468 31.8363 46.1392 33.8842C45.8268 34.2029 45.4995 34.5058 45.1595 34.7961C44.3149 33.3738 44.0026 31.5914 44.2816 29.6736C44.8388 25.8406 47.816 22.6181 49.5411 21.0382C52.0973 18.6973 54.3288 17.6192 55.0051 17.4871C58.2908 20.1064 60.1599 25.5178 59.3652 30.1915Z" fill="white"/>
<path d="M2.26274 36.4429C2.77656 36.2968 3.07446 35.7618 2.92841 35.2482C2.86125 35.0117 2.79615 34.7695 2.73492 34.5281C2.6037 34.0104 2.07789 33.6969 1.55981 33.8283C1.04213 33.9595 0.728754 34.4855 0.859981 35.0034C0.925723 35.2627 0.995719 35.5231 1.06791 35.7772C1.2146 36.2928 1.75124 36.5887 2.26274 36.4429Z" fill="white"/>
<path d="M32.1476 2.22303C33.2915 2.4004 33.6497 2.52492 33.8624 2.52492C34.3079 2.52492 34.7088 2.21516 34.8068 1.76206C34.9197 1.23999 34.588 0.725264 34.066 0.612471C33.5316 0.496971 32.986 0.39578 32.4442 0.311733C31.9163 0.230393 31.4222 0.59146 31.3402 1.1192C31.2583 1.64694 31.6198 2.14117 32.1476 2.22303Z" fill="white"/>
<path d="M25.4166 2.04353C25.5654 2.04353 26.0231 1.97392 27.0435 1.93345C27.5772 1.91231 27.9927 1.46242 27.9715 0.928751C27.9504 0.395079 27.4999 -0.0201284 26.9668 0.000754421C26.4196 0.0225396 25.8666 0.0605669 25.3232 0.113934C24.7917 0.166141 24.403 0.639356 24.4552 1.17097C24.5043 1.67035 24.9251 2.04353 25.4166 2.04353Z" fill="white"/>
<path d="M44.2204 7.46388C44.6213 7.77777 45.0186 8.10802 45.4013 8.44537C45.8036 8.79999 46.4145 8.75849 46.7663 8.35952C47.1195 7.95888 47.0811 7.34774 46.6805 6.99453C46.2698 6.63243 45.8434 6.27807 45.4128 5.94098C44.9924 5.61188 44.3845 5.68562 44.0552 6.10624C43.7258 6.52673 43.7998 7.13452 44.2204 7.46388Z" fill="white"/>
<path d="M38.5199 4.06791C38.9868 4.27081 39.4542 4.49047 39.9094 4.72095C40.3878 4.96317 40.9689 4.76955 41.209 4.29505C41.4503 3.81848 41.2596 3.2366 40.783 2.99541C40.2943 2.74791 39.7921 2.51189 39.2906 2.29403C38.8009 2.08134 38.2312 2.30576 38.0182 2.79561C37.8054 3.28532 38.0299 3.85496 38.5199 4.06791Z" fill="white"/>
<path d="M18.7136 3.58081C19.0393 3.58081 19.0656 3.46815 20.5027 3.0327C21.0138 2.87776 21.3027 2.3379 21.1479 1.82666C20.993 1.31541 20.4527 1.02654 19.9418 1.18148C19.4183 1.34004 18.8924 1.51651 18.3788 1.706C17.8776 1.89085 17.6214 2.44695 17.8061 2.94801C17.9502 3.33886 18.3202 3.58081 18.7136 3.58081Z" fill="white"/>
<path d="M1.31603 23.613C1.83875 23.7193 2.34973 23.3813 2.45595 22.8573C2.55701 22.3581 2.67445 21.8554 2.80477 21.363C2.94141 20.8466 2.63358 20.3172 2.11731 20.1805C1.60066 20.0441 1.0715 20.3517 0.934856 20.868C0.794864 21.397 0.668794 21.9371 0.560126 22.4733C0.454165 22.9966 0.792544 23.5069 1.31603 23.613Z" fill="white"/>
<path d="M1.9714 29.475C1.92834 28.6561 1.9353 28.0205 1.93504 27.9393C1.93337 27.4051 1.50733 26.9699 0.973146 26.967C0.971341 26.967 0.969794 26.967 0.967989 26.967C0.436251 26.967 -0.000741084 27.3968 0.000805791 27.9291C0.000805791 27.9488 -0.00899108 28.648 0.0397355 29.5764C0.0668058 30.0925 0.493872 30.4928 1.00473 30.4928C1.5616 30.4928 2.0004 30.0265 1.9714 29.475Z" fill="white"/>
<path d="M3.29732 17.0211C3.77389 17.255 4.355 17.0607 4.59141 16.5783C4.81545 16.121 5.05664 15.6638 5.30787 15.2193C5.57071 14.7543 5.40687 14.1643 4.94204 13.9014C4.47707 13.6386 3.88707 13.8022 3.6241 14.2672C3.35417 14.7447 3.0952 15.2358 2.85453 15.7271C2.61941 16.2067 2.81766 16.786 3.29732 17.0211Z" fill="white"/>
<path d="M12.6168 6.76275C13.0706 6.76275 13.0852 6.5877 14.4525 5.75006C14.9079 5.47098 15.0509 4.87557 14.7718 4.42014C14.4927 3.96471 13.8974 3.82163 13.4418 4.10084C12.9757 4.38649 12.5119 4.68968 12.0635 5.00189C11.625 5.30701 11.5171 5.90978 11.8223 6.34819C12.0103 6.61812 12.3111 6.76275 12.6168 6.76275Z" fill="white"/>
<path d="M6.88067 11.1413C7.28569 11.4894 7.89632 11.4431 8.24449 11.038C8.57681 10.6511 8.92486 10.2692 9.27858 9.90294C9.6497 9.5188 9.639 8.90649 9.25486 8.5355C8.87072 8.16438 8.25842 8.17521 7.88742 8.55922C7.50767 8.95238 7.13422 9.36231 6.77741 9.77764C6.42924 10.1827 6.47551 10.7933 6.88067 11.1413Z" fill="white"/>
<path d="M49.3442 12.7945C49.6575 13.2291 50.2625 13.3247 50.6942 13.0134C51.1275 12.701 51.2254 12.0966 50.9131 11.6633C50.7561 11.4456 50.5953 11.2292 50.4354 11.0202C50.1108 10.596 49.5036 10.5154 49.0795 10.8402C48.6554 11.1648 48.5749 11.7719 48.8996 12.1961C49.0483 12.3903 49.1979 12.5917 49.3442 12.7945Z" fill="white"/>
</svg>
