<svg width="66" height="66" viewBox="0 0 66 66" fill="none" xmlns="http://www.w3.org/2000/svg">
<g clip-path="url(#clip0_3401_21961)">
<path d="M14.1582 63.9643L12.2176 61.2308C11.8056 60.6502 11.0008 60.5137 10.4202 60.9258C9.83976 61.3379 9.70312 62.1425 10.1154 62.7231L12.056 65.4568C12.3074 65.8109 12.7047 65.9998 13.1083 65.9998C13.3664 65.9998 13.6269 65.9224 13.8534 65.7617C14.4338 65.3496 14.5705 64.5449 14.1582 63.9643Z" fill="white"/>
<path d="M29.0303 64.446L26.9183 54.38C25.8914 49.4852 23.04 45.2527 18.8897 42.462L14.3805 39.4299C12.5723 38.2143 10.1419 38.4757 8.63062 40.0168V24.4841C8.63062 22.4454 7.24063 20.7131 5.25032 20.2714C3.96578 19.986 2.64089 20.2951 1.61467 21.1184C0.588577 21.9417 0.00012207 23.1685 0.00012207 24.4841V44.4712C0.00012207 47.0897 0.8014 49.6025 2.3172 51.7378L4.61598 54.976C4.86734 55.3301 5.26463 55.519 5.66824 55.519C5.92631 55.519 6.18682 55.4416 6.41331 55.2809C6.99377 54.8688 7.13041 54.0641 6.71817 53.4835L4.4194 50.2453C3.2149 48.5485 2.57824 46.5519 2.57824 44.4711V24.4841C2.57824 23.9546 2.81517 23.4608 3.22818 23.1292C3.64106 22.7978 4.17435 22.6734 4.69178 22.7883C5.49292 22.966 6.0525 23.6634 6.0525 24.4841V40.3416C6.0525 42.5864 6.87724 44.725 8.37551 46.389C8.43971 46.4659 8.50571 46.5421 8.57545 46.616C9.43151 47.5231 10.438 48.592 11.386 49.5995L12.7131 51.0119C12.7173 51.0164 12.722 51.0203 12.7263 51.0247C13.8616 52.2321 14.6989 53.1238 14.7164 53.1423C15.2035 53.6612 16.0195 53.687 16.5385 53.1996C17.0574 52.7122 17.0831 51.8965 16.5956 51.3775C16.5721 51.3525 15.0631 49.7457 13.3399 47.914L10.3843 44.7684C10.3768 44.7604 10.3699 44.752 10.3625 44.744C9.66947 43.9151 9.67811 42.7133 10.4045 41.8932C11.0471 41.168 12.1381 41.0288 12.9421 41.5693L17.4511 44.6014C21.0409 47.0152 23.507 50.6759 24.3951 54.9094L26.5073 64.9755C26.6348 65.583 27.1706 66 27.7676 66C27.8552 66 27.9443 65.991 28.0335 65.9723C28.7302 65.8261 29.1765 65.1427 29.0303 64.446Z" fill="white"/>
<path d="M9.55049 57.4737L9.54224 57.4621C9.12845 56.8825 8.32356 56.748 7.74413 57.1615C7.1647 57.575 7.03012 58.38 7.44352 58.9595L7.45177 58.9711C7.7034 59.3236 8.09978 59.5116 8.50223 59.5116C8.76133 59.5116 9.02288 59.4337 9.24988 59.2717C9.82918 58.8581 9.96389 58.0531 9.55049 57.4737Z" fill="white"/>
<path d="M64.3852 21.1184C63.3591 20.2951 62.0336 19.9865 60.7497 20.2714C58.7594 20.713 57.3693 22.4454 57.3693 24.4842V40.0168C55.8581 38.4757 53.4274 38.2143 51.6194 39.4299L47.1102 42.4619C42.9598 45.2524 40.1085 49.4851 39.0815 54.3799L36.9695 64.446C36.8234 65.1427 37.2696 65.826 37.9664 65.9722C38.0556 65.9909 38.1448 65.9999 38.2323 65.9999C38.8294 65.9999 39.3651 65.5828 39.4926 64.9753L41.6046 54.9091C42.4929 50.6758 44.9589 47.015 48.5486 44.6013L53.0579 41.5693C53.8616 41.0287 54.9527 41.1679 55.5955 41.8932C56.321 42.7122 56.3307 43.9121 55.6402 44.7409C55.632 44.75 55.6241 44.7592 55.6159 44.7683C55.6159 44.7683 49.4278 51.3526 49.4044 51.3774C48.917 51.8964 48.9427 52.7121 49.4615 53.1995C49.9805 53.6869 50.7962 53.6612 51.2836 53.1422C51.3011 53.1237 56.5685 47.5231 57.4246 46.616C57.4943 46.5421 57.5603 46.466 57.6245 46.389C59.1226 44.7251 59.9475 42.5864 59.9475 40.3416V24.484C59.9475 23.6633 60.5071 22.9659 61.3084 22.7882C61.8257 22.6734 62.3588 22.7978 62.7719 23.1291C63.185 23.4605 63.4219 23.9544 63.4219 24.484V44.4711C63.4219 46.5519 62.7852 48.5486 61.5807 50.2453L51.8418 63.9644C51.4297 64.5449 51.5662 65.3496 52.1466 65.7617C52.3733 65.9225 52.6336 65.9998 52.8917 65.9998C53.2952 65.9998 53.6926 65.8108 53.944 65.4569L63.6829 51.7378C65.1987 49.6025 66 47.0897 66 44.4713V24.484C65.9996 23.1684 65.4113 21.9418 64.3852 21.1184Z" fill="white"/>
<path d="M49.3268 24.7061L47.0335 24.1583V23.747C48.524 22.7029 49.5014 20.9739 49.5014 19.0199V16.0385C49.5014 12.8572 46.9133 10.2692 43.7321 10.2692C42.3044 10.2692 40.9973 10.7915 39.9889 11.6536C38.8661 8.90406 36.1645 6.96094 33.0161 6.96094C29.8639 6.96094 27.1594 8.90909 26.0392 11.6639C25.0292 10.7956 23.7174 10.2689 22.2839 10.2689C19.1027 10.2689 16.5146 12.857 16.5146 16.0382V16.2364V19.0197C16.5146 20.9736 17.492 22.7026 18.9825 23.7468V24.158L16.6892 24.7058C13.951 25.36 12.0385 27.7831 12.0385 30.5984V33.0058C12.0385 33.7178 12.6158 34.2949 13.3276 34.2949H19.251C19.2419 34.4512 19.2356 34.6084 19.2356 34.7668V39.402C19.2356 40.1139 19.8128 40.6911 20.5246 40.6911H28.2732C28.985 40.6911 29.5622 40.1139 29.5622 39.402C29.5622 38.6901 28.985 38.1129 28.2732 38.1129H26.9413V35.4491C26.9413 34.7372 26.3641 34.16 25.6522 34.16C24.9404 34.16 24.3632 34.7372 24.3632 35.4491V38.1132H21.8138V34.7671C21.8138 32.2809 23.5025 30.1399 25.92 29.5606L29.4574 28.7129L31.8248 34.0988C32.0305 34.5669 32.4935 34.8692 33.0046 34.8692H33.0048C33.516 34.8692 33.979 34.567 34.1848 34.0989L36.5497 28.721L40.0759 29.5634C42.4957 30.1415 44.1858 32.2828 44.1858 34.7708V38.1132H41.6364V35.4491C41.6364 34.7372 41.0592 34.16 40.3474 34.16C39.6356 34.16 39.0583 34.7372 39.0583 35.4491V38.1132H37.5974C36.8856 38.1132 36.3084 38.6903 36.3084 39.4023C36.3084 40.1142 36.8856 40.6913 37.5974 40.6913H45.475C46.1868 40.6913 46.764 40.1142 46.764 39.4023V34.7708C46.764 34.6111 46.7576 34.4528 46.7483 34.2951H52.6885C53.4004 34.2951 53.9776 33.718 53.9776 33.0061V30.5986C53.9776 27.7833 52.0652 25.3602 49.3268 24.7061ZM43.7321 12.847C45.421 12.847 46.8075 14.1659 46.9163 15.8277H45.1241C43.6175 15.8277 42.1348 15.465 40.802 14.7743C41.2923 13.6415 42.4212 12.847 43.7321 12.847ZM40.5409 18.8315C40.5424 18.7687 40.5456 18.7062 40.5456 18.643V17.495C41.9921 18.0936 43.5476 18.4058 45.1241 18.4058H46.9232V19.0198C46.9232 20.7794 45.4917 22.211 43.7321 22.211C41.9724 22.211 40.5409 20.7794 40.5409 19.0197V18.8315ZM28.0648 14.4903C28.0648 11.7602 30.2859 9.53905 33.0161 9.53905C35.4786 9.53905 37.5268 11.3461 37.905 13.7035L35.7349 12.4285C35.192 12.1096 34.4983 12.2293 34.0939 12.7121C33.0334 13.9777 31.4781 14.7035 29.8269 14.7035H28.0648V14.4903ZM22.2841 12.847C23.5949 12.847 24.7237 13.6416 25.2141 14.7742C23.8812 15.4648 22.3987 15.8276 20.892 15.8276H19.0998C19.2086 14.1659 20.5953 12.847 22.2841 12.847ZM19.0929 18.4057H20.892C22.4702 18.4057 24.0274 18.0929 25.4753 17.4929V19.0196C25.4753 20.7791 24.0438 22.2107 22.2841 22.2107C20.5244 22.2107 19.0929 20.7794 19.0929 19.0197V18.4057ZM25.3193 27.0533C22.7832 27.661 20.7901 29.4292 19.8414 31.7169H14.6166V30.5985C14.6166 28.9813 15.7152 27.5892 17.2882 27.2134L20.5712 26.4292C21.1514 26.2906 21.5608 25.772 21.5608 25.1754V24.7421C21.798 24.7718 22.039 24.789 22.2841 24.789C22.5273 24.789 22.7667 24.7721 23.0021 24.7427V25.1105C23.0012 25.1297 23.0008 25.1489 23.0007 25.1681C23.0004 25.591 23.2083 26.0053 23.5901 26.2523C23.734 26.3455 23.8895 26.4061 24.0481 26.4364L25.971 26.8971L25.3193 27.0533ZM28.915 25.0522C28.5838 24.9062 28.2386 24.7894 27.8828 24.7042L25.5801 24.1523V23.7507C25.9957 23.4602 26.3714 23.117 26.6973 22.73C27.273 23.6168 28.0294 24.3752 28.915 24.9528V25.0522ZM34.5136 26.9462L33.0052 30.3771L31.4932 26.9375V26.0176C31.9853 26.119 32.4946 26.1725 33.0161 26.1725C33.5288 26.1725 34.0294 26.1206 34.5136 26.0225V26.9462ZM33.0161 23.5943C30.2859 23.5944 28.0648 21.3732 28.0648 18.643V17.2815H29.8269C31.871 17.2815 33.8147 16.5214 35.3043 15.1655L37.9626 16.7274V18.8316C37.8631 21.4746 35.6832 23.5943 33.0161 23.5943ZM37.0917 25.0563V24.9691C37.9845 24.3918 38.7477 23.6315 39.3279 22.7408C39.6515 23.1234 40.0241 23.4629 40.4357 23.7507V24.1523L38.1328 24.7042C37.7739 24.7903 37.4257 24.9085 37.0917 25.0563ZM51.3994 31.7169H46.1568C45.2073 29.4292 43.2127 27.662 40.6751 27.0558L40.0278 26.9012L41.961 26.438C42.1219 26.408 42.2799 26.3467 42.4257 26.2523C42.8069 26.0057 43.0142 25.5914 43.0142 25.1685C43.0142 25.1584 43.014 25.1482 43.0138 25.1382V24.7427C43.2493 24.7721 43.4886 24.789 43.7318 24.789C43.9768 24.789 44.2179 24.7718 44.4551 24.7421V25.1754C44.4551 25.772 44.8645 26.2906 45.4447 26.4292L48.7277 27.2134C50.3007 27.5893 51.3994 28.9813 51.3994 30.5985V31.7169Z" fill="white"/>
<path d="M33.9111 38.4899C33.6702 38.2502 33.3389 38.1135 32.9999 38.1135C32.6594 38.1135 32.3283 38.2502 32.0885 38.4899C31.8475 38.731 31.7108 39.0623 31.7108 39.4026C31.7108 39.7416 31.8475 40.0729 32.0885 40.3139C32.3283 40.5537 32.6596 40.6916 32.9999 40.6916C33.3389 40.6916 33.6702 40.5537 33.9111 40.3139C34.1509 40.0729 34.2889 39.7416 34.2889 39.4026C34.2889 39.0623 34.151 38.731 33.9111 38.4899Z" fill="white"/>
<path d="M32.999 0C32.2871 0 31.7099 0.577111 31.7099 1.28906V3.21787C31.7099 3.92982 32.2871 4.50693 32.999 4.50693C33.7108 4.50693 34.288 3.92982 34.288 3.21787V1.28906C34.288 0.577111 33.7109 0 32.999 0Z" fill="white"/>
<path d="M28.2506 4.20469L26.8984 2.85376C26.3948 2.35051 25.5787 2.3509 25.0754 2.85453C24.5722 3.35817 24.5727 4.1744 25.0763 4.67752L26.4287 6.02845C26.6803 6.27994 27.01 6.40563 27.3396 6.40563C27.6698 6.40563 27.9998 6.27956 28.2515 6.02767C28.7545 5.52404 28.7542 4.70781 28.2506 4.20469Z" fill="white"/>
<path d="M40.8917 2.8869C40.3881 2.38378 39.5717 2.38403 39.0687 2.8878L37.727 4.23087C37.2238 4.7345 37.2242 5.55073 37.7279 6.05385C37.9796 6.30535 38.3092 6.43103 38.639 6.43103C38.9691 6.43103 39.2992 6.30496 39.5509 6.05295L40.8926 4.70988C41.3958 4.20625 41.3954 3.39001 40.8917 2.8869Z" fill="white"/>
</g>
<defs>
<clipPath id="clip0_3401_21961">
<rect width="66" height="66" fill="white"/>
</clipPath>
</defs>
</svg>
