<svg width="66" height="66" viewBox="0 0 66 66" fill="none" xmlns="http://www.w3.org/2000/svg">
<g clip-path="url(#clip0_3401_2875)">
<path d="M58.863 8.79827L58.2054 6.22807C57.4565 3.30104 54.3812 1.47482 51.4502 2.22524L41.0693 4.88103L40.6937 3.41268C40.0815 1.01988 37.5626 -0.475677 35.1669 0.137833L24.5159 2.8626C22.123 3.47482 20.6278 5.99358 21.2408 8.38935L21.6165 9.8577L16.5738 11.1478C15.884 11.3241 15.468 12.0263 15.6444 12.7161C15.8209 13.406 16.5231 13.8221 17.213 13.6455L40.4594 7.69836C40.46 7.69823 52.0893 4.72298 52.0893 4.72298C53.659 4.32193 55.3071 5.3013 55.7076 6.86711L56.0456 8.18837L10.0684 19.9508C10.0684 19.9508 9.6817 18.4119 9.66519 18.2916C9.56838 17.5861 8.91787 17.0932 8.2127 17.1897C7.50727 17.2865 7.01404 17.9369 7.11086 18.6422C7.14038 18.8578 7.89015 21.8387 7.89015 21.8387C8.03918 22.4214 8.56335 22.8086 9.13819 22.8086C9.24403 22.8086 12.8441 21.9019 12.8441 21.9019L16.2206 56.3219C16.4531 58.7169 18.4317 60.5261 20.8325 60.5497V64.7109C20.8325 65.4227 21.4097 66 22.1217 66H48.3259C49.0379 66 49.6151 65.4227 49.6151 64.7109V60.5497C52.0159 60.526 53.9944 58.7169 54.2269 56.3232L55.9658 38.6001C56.0354 37.8916 55.5173 37.2607 54.8087 37.1912C54.1007 37.123 53.4692 37.6397 53.3998 38.3484L51.6607 56.0726C51.5555 57.1556 50.6557 57.9724 49.5675 57.9724H20.8798C19.7918 57.9724 18.8918 57.1556 18.7865 56.0713L15.3713 21.2553L16.009 21.0922H55.0928L54.5074 27.0587C54.4378 27.7672 54.9559 28.3981 55.6646 28.4676C56.3718 28.5357 57.0039 28.0191 57.0735 27.3105L57.7977 19.9289C57.8704 19.1885 57.2608 18.5138 56.5148 18.5138H54.9007L54.5992 17.8873C53.4281 15.4533 50.8918 13.8583 48.1896 13.8583C47.2251 13.8583 46.2469 13.922 45.3214 13.593L57.9335 10.3664C58.6081 10.194 59.0358 9.4743 58.863 8.79827ZM23.9518 6.26211C24.2193 5.81077 24.6465 5.49055 25.1548 5.36047L35.8058 2.63558C35.9683 2.59407 36.1328 2.57357 36.2961 2.57357C36.6441 2.57357 36.9868 2.66677 37.2941 2.8488C37.7454 3.1163 38.0656 3.54353 38.1957 4.05185L38.5713 5.52007L24.1142 9.21866L23.7385 7.75031C23.6086 7.24187 23.6843 6.71344 23.9518 6.26211ZM47.0367 63.4217H23.4108V60.5513H47.0367V63.4217ZM48.1896 16.4369C49.7134 16.4369 51.1751 17.233 52.0005 18.5136H26.0996L39.7668 15.0214C40.7784 14.7592 41.8577 14.8559 42.8065 15.294L43.8621 15.7815C45.2529 16.4238 46.6969 16.4369 48.1896 16.4369Z" fill="white"/>
<path d="M46.3451 47.0789C47.0044 45.9373 47.0044 44.5737 46.3451 43.4319L44.0148 39.3958C43.6589 38.7793 42.8703 38.5678 42.2538 38.924C41.6372 39.28 41.4259 40.0684 41.782 40.685L44.1123 44.7211C44.5229 45.4323 43.994 46.3241 43.1868 46.3241H40.8552L40.9054 46.2567C41.33 45.6852 41.2109 44.8777 40.6394 44.4531C40.0679 44.0285 39.2605 44.1475 38.8357 44.719L37.2565 46.8444C36.9233 47.2927 36.9219 47.9248 37.2514 48.3752L38.8087 50.5005C39.0612 50.8452 39.4527 51.0279 39.8497 51.0279C40.1141 51.0279 40.3809 50.9467 40.6105 50.7784C41.1848 50.3575 41.3092 49.5509 40.8885 48.9766L40.8341 48.9023H43.1868C44.5052 48.9023 45.6858 48.2206 46.3451 47.0789Z" fill="white"/>
<path d="M24.5061 47.079C25.1654 48.2208 26.346 48.9025 27.6644 48.9025H32.6467C33.3587 48.9025 33.9359 48.3252 33.9359 47.6133C33.9359 46.9014 33.3587 46.3242 32.6467 46.3242H27.6644C26.8573 46.3242 26.3285 45.4323 26.739 44.7211L27.9442 42.6338L27.9666 42.686C28.1761 43.175 28.6519 43.4679 29.1522 43.4679C29.3215 43.4679 29.4937 43.4342 29.6593 43.3633C30.3138 43.0828 30.617 42.3251 30.3366 41.6707L29.3002 39.2514C29.0802 38.7377 28.5339 38.419 27.9786 38.4773L25.3416 38.7585C24.6336 38.8339 24.1209 39.4691 24.1963 40.1771C24.2717 40.8848 24.9068 41.3984 25.6149 41.3222L25.7313 41.3098L24.5062 43.4319C23.8468 44.5737 23.8468 45.9371 24.5061 47.079Z" fill="white"/>
<path d="M36.211 34.5239C36.0956 35.2265 36.5716 35.8895 37.2743 36.0049L39.8713 36.4313C40.4246 36.5217 40.993 36.2291 41.2395 35.7229L42.4148 33.3581C42.7317 32.7206 42.4717 31.9469 41.8342 31.63C41.1965 31.3128 40.4228 31.5731 40.106 32.2107L39.9952 32.4336L38.584 29.9893C37.2055 27.6017 33.6465 27.6007 32.2674 29.9893L29.7933 34.2744C29.4373 34.891 29.6486 35.6794 30.2652 36.0354C30.8819 36.3916 31.6702 36.1803 32.0262 35.5636L34.5002 31.2784C34.9068 30.5743 35.9446 30.5743 36.351 31.2784L37.6052 33.4508C36.9358 33.3868 36.3216 33.8503 36.211 34.5239Z" fill="white"/>
<path d="M56.4317 32.2912C56.1617 31.6435 55.3977 31.3241 54.7481 31.5938C54.0993 31.8631 53.7819 32.6282 54.0507 33.2776C54.3192 33.9261 55.0855 34.2446 55.7343 33.975C56.382 33.7058 56.7018 32.9402 56.4317 32.2912Z" fill="white"/>
<path d="M12.7452 13.269C12.4752 12.6213 11.7112 12.3019 11.0616 12.5716C10.4128 12.8409 10.0954 13.606 10.3642 14.2553C10.6327 14.9039 11.399 15.2223 12.0478 14.9528C12.6955 14.6836 13.0153 13.918 12.7452 13.269Z" fill="white"/>
</g>
<defs>
<clipPath id="clip0_3401_2875">
<rect width="66" height="66" fill="white"/>
</clipPath>
</defs>
</svg>
